<svg viewBox="0 0 4114 999"
    xmlns="http://www.w3.org/2000/svg">
    <g fill="#fff">
        <path d="M2053.15 730.928c7.313 17.622 14.62 35.246 21.941 52.864 2.245 5.402 4.57 10.77 6.777 16.188 2.468 6.058 1.607 12.17-.291 18.115-1.825 5.715-6.616 8.672-12.285 6.455-5.29-2.07-10.727-5.072-14.652-9.081-12.05-12.308-23.521-25.193-34.986-38.06-6.297-7.067-6.536-7.725-14.002-1.474-16.513 13.824-32.578 28.182-48.858 42.285-12.562 10.882-25.165 21.715-37.763 32.555-6.064 5.218-12.125 10.442-18.244 15.595-11.298 9.515-22.83 18.765-33.881 28.558-5.5 4.874-9.894 10.976-15.241 16.044-8.92 8.455-18.186 16.546-27.338 24.754a16979.002 16979.002 0 0 1-35.782 31.98c-2.288 2.04-4.413 4.42-7.035 5.893-3.616 2.03-7.202-.459-6.439-4.51.612-3.251 1.804-6.674 3.688-9.354 7.234-10.296 14.075-20.779 23.41-29.615 16.086-15.224 25.144-29.392 40.619-45.257 2.345-2.404 7.75-8.087 10.99-11.15 4.751-5.57 6.14-6.5 9.709-9.474 15.826-13.192 31.695-26.336 47.343-39.736 12.115-10.375 24.855-20.244 35.638-31.893 13.845-14.957 28.989-28.376 44.018-41.999.643-.583.965-1.521 1.803-2.895-13.38-13.745-15.848-32.685-22.528-49.704-1.37-3.492-.31-8.646 1.18-12.42 4.245-10.738 12.954-17.752 22.362-23.794 4.1-2.633 8.621-2.685 13.254-.582 7.032 3.193 12.185 7.968 15.472 15.095 4.477 9.706 9.455 19.181 14.92 30.166 3.697-3.24 6.504-5.397 8.945-7.91 3.777-3.887 8.237-5.025 13.468-4.432 8.15.925 12.735 7.697 10.536 15.644-2.622 9.473-9.015 15.9-16.837 21.217"/>
        <path d="M1847.029 644.044c-7.222 2.444-13.253 6.287-16.586 13.133-4.741 9.74-9.815 19.478-13.046 29.751-3.983 12.661-3.652 26.391 1.604 38.288 10.221 23.132 19.898 46.796 36.77 66.341.664.77.89 1.918 2.041 4.523-15.912-9.09-29.533-18.275-42.007-29.216-23.864-20.932-50.385-37.318-80.835-47.024-7.9-2.518-15.393-2.21-23.015.708-3.742 1.433-5.844 3.953-6.74 7.818-1.949 8.396 1.475 15.06 7.465 20.133 5.723 4.849 11.867 9.703 18.644 12.715 21.246 9.44 42.72 18.617 66.34 20.39 20.586 1.545 38.274 10.323 55.102 21.404 5.042 3.32 10.171 6.541 14.97 10.19 9.572 7.275 19.971 13.835 28.182 22.45 16.822 17.653 32.3 36.382 45.566 57.17a957.374 957.374 0 0 1 40.438 69.68c6.105 11.617 13.844 21.844 21.017 32.586 2.358 3.53 5.426 4.538 9.882.852-1.894-4.601-3.336-9.531-5.81-13.873-10.462-18.356-20.867-36.762-32-54.711-9.056-14.599-19.047-28.62-28.761-42.805-5.286-7.716-11.007-15.135-16.272-22.865-11.773-17.287-24.128-33.964-41.378-46.424-6.387-4.613-19.683-31.485-20.78-40.41-1.86-15.12 1.216-29.516 7.305-43.222 5.32-11.975 8.965-24.2 10.535-37.29 2.6-21.674-7.988-36.346-24.027-48.45-4.348-3.281-9.216-3.664-14.604-1.842ZM392.34 448.6c8.069-20.315 16.332-40.557 24.162-60.965 11.618-30.278 23.436-60.496 34.214-91.076 8.948-25.389 16.119-51.399 24.806-76.885 9.337-27.397 20.17-54.295 29.085-81.821 4.871-15.043 14.805-20.107 28.714-18.136l37.198-1.067c19.905-.777 25.57 4.998 30.054 23.946 4.214 17.809 10.69 35.084 16.194 52.586l23.453 82.873c5.342 19.41 10.86 38.793 17.062 57.941 7.382 22.796 15.927 45.214 23.32 68.006 7.038 21.703 13.674 43.559 19.67 65.57 4.413 16.2-2.007 21.968-18.546 24.658-19.105 3.108-20.047-.84-38.6-1.574-9.775-.386-19.763-.02-29.2-2.077-4.061-.885-7.922-6.574-10.145-10.957-2.408-4.748-2.788-10.52-4.074-15.84-4.11-17.01-4.11-17.13-20.806-17.661-24.791-.788-49.585-1.621-74.385-1.98-16.49-.239-20.44 2.74-21.438 17.628-.55 8.197-4.995 16.298-8.508 24.069-2.198 4.862-5.853 6.559-12.406 5.414-12.585-2.2-25.565-2.46-38.4-2.824-16.566-.47-16.047 1.444-32.61.946-6.005-.18-9.484-4.002-7.949-10.532l9.134-30.241Zm157.964-190.85-3.96.326c-3.525 8.776-7.558 17.387-10.474 26.36-7.33 22.555-13.987 45.327-21.262 67.9-3.006 9.327-.509 13.65 8.968 13.963 3.028.1 6.042 1.092 9.055 1.055 13.105-.162 26.218-.367 39.296-1.116 1.508-.086 3.916-3.62 3.991-5.627.16-4.324-.521-8.795-1.57-13.03-5.47-22.08-11.063-44.134-16.832-66.139-2.091-7.98-4.79-15.8-7.212-23.693ZM919.56 120.77c15.312-.446 30.622-1.068 45.938-1.232m177.698 212.536s11.92 14.168 14.167 49.993c2.046 34.534-10.202 50.707-33.122 75.824-1.15 1.261-2.214 2.8-3.66 3.562-9.513 5.011-19.153 9.782-28.687 14.755-8.427 4.395-19.74 6.217-26.849 7.867-7.11 1.649-16.866 4.187-25.435 4.802-20.287 1.456-40.645 1.972-60.981 2.66-25.08.848-50.165 1.508-75.25 2.205-16.008.444-18.568-5.458-18.424-19.226.083-7.937-1.27-13.486-1.324-20.265-.131-16.648.349-33.3.255-49.949-.074-12.912-.979-25.824-.921-38.733.112-25.227.789-50.452.862-75.678.014-4.915-3.108-138.953-2.222-149.324.773-9.046 4.372-15.37 13.206-17.225 0 0 25.826-3.302 61.592-3.702 35.767-.401 67.408.896 76.326 2.622 16.375 3.167 32.73 4.649 47.604 15.154 11.885 8.394 25.025 14.868 34.05 26.732 3.747 4.923 8.308 10.052 9.72 15.774 4.695 19.015 14.254 38.051 7.149 58.005-5.607 15.748-14.014 29.18-21.36 44.282-.76 1.562-3.238 3.515-4.764 4.812-2.373 2.018-6.801 5.041-6.38 6.257 1.108 3.188 3.903 6.412 6.88 8.177 0 0 24.41 9.14 37.568 30.62Zm-175.356-2.022c-.507 1.536-1.112 2.498-1.098 3.45.402 25.907.508 51.827 1.495 77.713.404 10.565 8.556 14.68 19.1 12.09 9.187-2.258 18.71-5.003 27.982-4.67 18.715.67 32.626-8.216 45.059-20.085 3.774-3.603 6.125-10.053 6.664-15.446 2.178-21.805-15.343-44.188-38.294-47.592-19.887-2.95-40.102-3.684-60.908-5.46Zm27.354-133.658c-6.266-.535-10.701-.96-15.144-1.284-10.89-.795-15.33 4.34-15.178 15.284.233 16.703-.217 33.43-.865 50.127-.347 8.96 5.67 15.215 14.271 13.835 5.35-.858 10.798-1.212 16.077-2.364 13.149-2.87 27.329-3.497 36.933-14.987 12.386-14.815 15.245-28.673 3.068-40.122-11.343-10.665-22.336-23.768-39.162-20.489ZM2269.455 364.982c-6.347.41-12.704 1.275-19.038 1.135-14.188-.312-28.383-.87-42.542-1.819-10.13-.678-16.498-8.945-15.418-19.228.606-5.775 1.508-11.52 2.277-17.278 1.815-13.58 9.737-19.102 23.213-18.02 14.528 1.168 29.16 1.053 43.748 1.466 25.436.721 50.872 1.417 76.308 2.133.336.01.666.2 1.004.216 5.023.236 13.363-1.161 14.418.999 2.653 5.437 2.687 12.49 2.564 18.872-.27 13.95.709 28.378-2.582 41.683-3.11 12.578-9.528 25.05-17.17 35.637-12.655 17.53-26.126 34.923-41.786 49.686-12.303 11.599-36.613 24.51-53.677 28.478s-52.777 6.762-80.13.952c-27.355-5.81-44.933-12.184-72.8-25.101-6.954-3.224-13.188-9.373-19.364-14.669-9.84-8.437-19.741-16.862-28.908-26.002-5.683-5.668-10.708-12.254-14.868-19.13-6.355-10.502-12.875-21.164-17.244-32.556-9.608-25.049-8.935-51.237-7.478-77.704 1.663-30.216 13.314-56.84 27.721-82.152 6.431-11.298 17.952-20.01 28.118-28.79 11.095-9.581 22.695-18.886 35.222-26.4 8.826-5.294 20.589-11.277 27.16-14.013 6.574-2.737 31.511-9.746 48.676-11.038 17.166-1.293 29.902-.42 40.444 1.584 12.83 2.439 25.319 6.72 37.909 10.363 5.49 1.59 10.992 3.263 16.27 5.43 28.857 11.847 50.212 33.58 70.061 56.285 9.635 11.02 15.317 25.652 21.96 39.058 3.209 6.477.053 12.598-6.524 15.026-11.1 4.097-22.522 7.377-33.935 10.544-9.458 2.625-19.037 4.97-28.706 6.565-2.23.368-6.568-2.281-7.363-4.474-7.708-21.26-23.734-33.885-42.443-45.139-18.668-11.229-39.322-11.692-59.269-12.344-13.615-.445-28.144 5.269-41.037 10.993-11.528 5.12-24.53 11.861-31.29 21.72-13.092 19.091-22.289 40.413-21.438 65.277.793 23.173 6.21 44.526 17.287 64.486 3.044 5.484 8.425 9.74 12.994 14.297 15.043 15.007 33.14 23.407 53.545 29.95 16.02 5.136 28.632.877 43.133-2.325 25.088-5.541 38.92-24.264 54.164-41.766 2.832-3.251 5.352-6.772 8.016-10.169l-1.202-2.718ZM2816.279 131.199c15.581-.62 23.321-.61 38.932-.934 19.464-.404 29.69-.671 49.154-1.063 11.493-.232 23.064 1.281 34.536 2.582 23.17 2.627 45.362 9.57 66.322 19.226 18.791 8.655 26.574 27.306 34.571 45.18 11.373 25.417 13.104 52.555 5.56 78.068-10.006 33.841-29.156 62.261-66.38 73.04-8.308 2.405-16.046 6.774-26.47 11.289 11.262 13.357 22.06 25.955 32.62 38.75 8.918 10.804 17.518 21.868 26.333 32.757 5.994 7.405 12.361 14.523 18.089 22.125 3.234 4.294 6.418 9.02 8.02 14.062 2.77 8.706-.493 13.069-9.692 13.63-19.96 1.22-39.935 2.492-59.921 2.877-15.077.29-27.606-4.228-35.732-19.052-7.358-13.426-17.752-25.153-25.724-38.286-10.384-17.108-19.631-34.902-29.554-52.295-1.365-2.393-3.8-4.176-5.74-6.24-1.572 2.426-3.874 4.67-4.535 7.323-.889 3.574-.926 7.498-.61 11.21 1.73 20.375 3.734 40.727 5.51 61.097.384 4.402.58 8.878.246 13.273-1.34 33.085-2.326 25.899-27.784 29.524-9.139 1.302-18.29 2.523-27.412 3.934-15.1 2.337-21.31-3.664-21.558-18.97-.18-11.153-2.484-22.256-3.288-33.422-.626-8.715-.319-17.494-.576-26.24-.392-13.319-.799-26.639-1.403-39.95-1.077-23.751 5.004-98.07 3.253-121.774 0 0-17.884-117.622 23.233-121.721Zm47.356 103.721c-.447 21.757-1.057 41.806-.993 61.853.007 2.25 3.735 6.302 5.912 6.424 10.074.567 20.61 1.765 30.24-.462 18.652-4.312 38.65-3.355 55.154-16.909 13.918-11.43 18.513-25.521 16.267-41.53-2.267-16.163-18.648-28.837-36.307-31.24-9.835-1.337-19.71-3.148-29.582-3.252-12.161-.128-25.307-.265-34.897 8.039-4.224 3.658-4.27 12.14-5.794 17.077ZM3866.963 274.28c-1.254 12.839-2.635 23.013-3.163 33.226a2637.997 2637.997 0 0 0-2.495 63.344c-.442 15.973-.157 31.959-.564 47.933-.228 8.929-1.442 17.84-1.783 26.771a431.256 431.256 0 0 0-.18 27.756c.225 8.619-1.178 14.864-11.28 14.476-7.966-.306-15.981.436-23.974.72-10.98.391-21.98.436-32.936 1.273-13.572 1.037-16.165-.765-14.868-14.72 2.259-24.319 5.732-48.53 7.758-72.863 1.804-21.681 2.296-43.468 3.453-65.204.477-8.973 1.347-17.93 1.746-26.905a17249.15 17249.15 0 0 0 3.878-92.356c.754-19.28 1.128-38.571 1.977-57.846.535-12.128 5.202-15.13 16.425-14.267 14.148 1.088 28.435 1.365 42.627.704 10.983-.51 17.36 2.833 22.91 13.07 4.82 8.887 10.795 17.06 16.452 25.398 10.135 14.937 20.423 29.754 30.63 44.634 12.975 18.914 26.089 37.72 38.86 56.793 16.87 25.195 33.425 50.636 50.261 75.857 1.403 2.103 3.92 3.343 5.919 4.984 1.372-2.568 3.788-5.077 3.952-7.713 1.607-25.76 2.724-51.545 4.213-77.312 1.035-17.908 3.02-35.788 3.508-53.698.505-18.5.278-37.064-.71-55.518-.673-12.59 5.773-21.085 18.538-21.182 11.252-.084 22.503.154 33.75.36 3.676.067 7.356.36 11.012.752 18.975 2.03 19.54 3.394 18.156 24.16-2.576 38.624-4.478 77.29-6.857 115.926-.573 9.308-2.494 18.56-2.796 27.86-1.31 40.43-1.977 80.877-3.475 121.302-.503 13.582-2.556 27.147-4.445 40.64-.34 2.44-3.04 6.007-5.134 6.491-23.526 5.44-47.192 6.594-70.576.452-4.183-1.098-8.47-5.14-11.02-9.087-13.746-21.278-26.89-43.003-40.376-64.478-11.79-18.776-23.254-37.826-35.783-56.02-13.28-19.285-27.688-37.667-41.514-56.52-4.676-6.375-8.992-13.055-13.65-19.446-2.089-2.866-4.616-5.362-8.446-9.746ZM3279.307 144.408c16.503 3.673 33.204 6.643 49.418 11.342 7.199 2.087 13.412 7.667 20.073 11.66 22.327 13.385 42.158 29.736 53.9 54.532 6.31 13.327 11.554 27.301 16.377 41.35 2.167 6.312 1.814 13.597 3.132 20.312 6.07 30.912-.743 60.795-11.236 89.359-6.688 18.205-14.424 36.947-31.387 49.221-8.723 6.313-14.617 17.065-23.318 23.432-20.122 14.722-39.6 30.902-65.79 32.742-14.388 1.011-28.533 6.882-42.955 8.808-14.572 1.947-29.348 1.812-44.037 2.436-17.746.754-35.499 1.144-53.24 2.06-21.355 1.104-27.113-6.48-24.157-28.756 1.569-11.821-.08-24.028-.213-36.062-.094-8.506-.216-17.014-.082-25.524.123-7.85 1.216-15.764.751-23.545-1.19-19.918-3.429-39.743-4.447-59.672-.843-16.497-.346-33.102-.79-49.639-.912-34.023-2.168-68.028-3.009-102.056-.162-6.538.52-13.216 1.685-19.677.367-2.038 3.556-5.041 5.484-5.12 16.72-.687 33.448-.626 50.172-1.169 8.707-.282 17.407-1.44 26.117-2.008 13.035-.849 26.088-2.049 39.109-2.072 7.446-.013 14.874 1.86 22.259 3.162 5.532.975 10.982 2.394 16.47 3.615l-.286 1.27Zm77.997 171.706c-1.732-11.564-1.875-29.35-7.43-44.85-5.527-15.426-10.896-33.15-28.274-40.09-.764-.305-1.067-1.691-1.82-2.185-9.815-6.433-19.028-14.516-29.687-18.728-12.53-4.95-26.178-7.633-39.612-9.275-15.934-1.948-32.143-2.107-48.259-2.313-8.322-.107-12.459 5.735-11.558 14.53.47 4.58 1.552 9.09 1.813 13.68 1.263 22.24 2.363 44.493 3.456 66.747.113 2.305-.296 4.646-.317 6.967-.197 22.07-.4 44.14-.527 66.208-.08 14.153.144 28.303-.111 42.456-.176 9.687 6.063 16.992 14.765 16.403 23.737-1.606 47.293-3.554 70.256-12.233 18.209-6.882 34.522-16.267 48.04-31.006 4.797-5.232 11.12-9.993 13.603-16.282 5.688-14.406 9.44-29.62 15.662-50.029ZM1223.707 261.6c4.31-16.562 8.785-32.884 12.773-49.325 3.747-15.447 15.153-25.687 25.235-36.417 8.821-9.387 18.991-18.172 30.091-24.582 13.7-7.912 29.376-12.328 43.467-19.66 15.545-8.087 32.04-12.217 49.055-14.135 14.41-1.626 29.068-.923 43.541-2.137 20.862-1.75 37.754 11.187 56.898 14.49 17.03 2.939 30.35 11.929 42.771 21.357 26.137 19.838 45.243 45.932 55.347 77.558 3.499 10.952 5.875 22.618 6.444 34.073 1.028 20.719 1.761 41.655-.1 62.255-1.703 18.843-5.75 37.719-10.98 55.944-9.641 33.59-31.35 58.433-60.26 77.564-33.446 22.134-70.7 33.081-110.119 33.627-22.547.313-45.7-3.683-67.611-9.435-17.461-4.584-35.308-12.29-49.665-23.04-21.966-16.446-42.312-35.91-52.017-62.922-6.43-17.893-13.886-36.02-16.242-54.629-3.383-26.716-9.437-54.1 1.372-80.586Zm216.094-61.081c-39.843-8.81-73.685-.892-104.308 21.347-14.503 10.531-22.668 25.326-30.135 41.342-11.373 24.391-10.262 31.113-8.31 56.322 1.155 14.923 2.72 18.78 6.635 28.616 2.03 12.179 12.145 18.856 19.787 27.725 13.326 15.464 28.914 26.699 49.6 31.974 19.706 5.024 38.852 10.178 58.904 4.297 9.119-2.674 18.647-5.666 26.41-10.87 13.955-9.357 29.001-17.458 37.295-33.922 8.537-16.945 8.61-13.861 16.889-34.227.243-.599.29-1.342.317-2.02 1.301-33.327 3.177-47.215-12.733-79.122-13.845-27.766-35.884-42.46-60.351-51.462ZM1747.54 133.411c45.77-8.48 89.134 7.094 104.476 9.26 19.058 5.948 33.223 10.048 47.158 14.819 11.109 3.803 14.408 13.594 8.5 23.668-9.44 16.1-21.539 30.056-35.882 41.86-2.967 2.44-8.73 3.484-12.518 2.507-7.517-1.938-14.878-5.139-21.73-8.873-18.046-9.838-36.79-10.344-55.194-2.988-22.647 9.052-28.336 40.302-9.55 54.106 8.381 6.157 18.34 7.634 30.356 10.397 52.913 11.596 99.804 16.073 114.698 48.366 14.894 32.293 19.645 50.315 15.53 76.223-12.372 26.625-25.074 52.708-55.051 66.775-21.012 9.859-42.377 16.144-64.578 20.87-53.041 9.872-93.177-4.682-104.764-9.21-9.092-3.554-17.13-9.722-26.013-13.93-4.424-2.096-29.417-7.182-30.918-14.442-.859-4.155 27.856-44.41 29.714-48.215 4.835-9.901 11.71-13.801 22.43-10.71 16.102 4.643 31.989 10.027 48.045 14.834 4.146 1.242 38.178 5.16 50.327 3.544 13.586-1.806 23.095-12.088 28.13-26.176 3.59-10.048-1.35-14.726-8.315-19.252-17.422-11.325-37.537-11.408-57.115-14.955-18.518-3.354-36.912-10.299-53.797-18.778-12.009-6.03-24.621-13.122-32.232-25.887-13.895-23.303-28.216-46.274-16.736-75.17 6.925-17.432 12.557-35.495 20.956-52.175 0 0 33.426-41.962 64.073-46.468ZM3493.43 419.334c0-31.212.002-62.424 0-93.636-.002-19.044.822-38.124-.231-57.121-1.218-21.95-4.268-43.813-6.174-65.738-1.035-11.908-1.844-23.875-1.593-35.795.055-2.575 4.867-6.979 7.888-7.276 16.617-1.634 33.373-2.1 50.055-3.263 17.981-1.254 35.946-2.721 53.896-4.298 21.21-1.862 42.425-3.736 63.582-6.022 9.471-1.024 18.162 5.387 18.209 14.563.083 16.268-.086 32.538.104 48.805.067 5.723-2.33 8.46-8.954 8.635-27.59.732-55.168 1.857-82.76 2.468-16.657.37-21.4 4.462-21.013 19.426.316 12.26.65 24.52.74 36.782.057 8.057 4.128 11.939 13.254 11.534 20.74-.922 41.482-1.777 62.227-2.605 10.2-.407 20.442-1.235 30.592-.716 3.227.165 8.802 3.966 8.903 6.26.742 16.826.294 33.692.374 50.545.038 7.933-3.386 11.95-12.963 11.323-14.962-.98-29.985-2.116-44.954-1.856-16.5.287-33.05 1.56-49.384 3.634-3.377.428-8.442 6.292-8.396 9.602.251 18.057 1.982 36.095 2.93 54.15.352 6.733 5.04 6.927 10.583 6.626 18.63-1.014 37.26-2.062 55.9-2.914 12.627-.577 25.27-.881 37.907-1.237 8.119-.228 12.4 1.956 12 10.673-.715 15.612.148 31.284.413 46.93.125 7.397-1.777 11.724-12.087 11.62-27.957-.285-55.933.378-83.891.996-26.624.588-53.232 1.823-79.857 2.32-13.473.253-16.13-2.545-16.155-14.515-.042-19.967-.012-39.934-.012-59.9h-1.133ZM88.36 420.726c12.247.438 23.921 1.083 35.6 1.225 22.85.279 45.701.29 68.552.385 10.405.042 20.905-.784 31.168.43 3.897.461 10.189 5.393 10.351 8.547.806 15.596.969 31.39-.677 46.898-1.425 13.427-10.822 20.228-24.061 17.532-21.126-4.3-42.097-4.848-63.566-3.935-14.797.63-29.738-3.752-44.68-4.418-19.267-.858-38.6-.151-57.904-.29-12.54-.09-16.518-.006-29.021-.82-8.168-.533-14.402-8.438-13.664-16.46 1.403-15.243 3.963-30.417 4.617-45.681 1.3-30.291 1.523-60.627 2.408-90.939.457-15.693 1.796-31.367 2-47.06.387-29.99.233-59.989.33-89.984.066-20.166-.004-40.335.4-60.494.094-4.694 1.066-9.763 3.168-13.874 1.259-2.462 5.644-5.018 8.367-4.765 17.223 1.602 24.548.192 43.207 1.737 8.081.669 16.868.32 25.254 1.413 7.83 1.02 11.83 5.195 10.856 14.093-2.353 21.496-4.476 43.044-5.712 64.628-.973 17.004-.113 34.105-.728 51.139-.945 26.156-2.837 52.28-3.622 78.44-.774 25.797-.61 51.62-1.014 77.43-.068 4.362-.933 8.713-1.629 14.823ZM2408.485 449.555c7.468-19.933 15.126-39.798 22.36-59.815 10.733-29.7 21.662-59.345 31.57-89.323 8.228-24.888 14.713-50.348 22.683-75.326 8.568-26.851 18.601-53.246 26.755-80.214 4.455-14.738 14.03-19.858 27.609-18.204l36.194-1.75c19.364-1.136 24.99 4.378 29.717 22.74 4.443 17.257 11.077 33.952 16.77 50.886l24.416 80.236c5.57 18.795 11.314 37.56 17.716 56.084 7.622 22.052 16.37 43.715 24.002 65.763 7.267 20.995 14.145 42.146 20.402 63.46 4.606 15.689-1.534 21.427-17.585 24.362-18.54 3.39-19.533-.436-37.61-.796-9.524-.19-19.24.358-28.468-1.465-3.97-.784-7.838-6.249-10.086-10.473-2.434-4.577-2.915-10.189-4.268-15.344-4.326-16.482-4.328-16.599-20.593-16.797-24.151-.294-48.306-.632-72.457-.508-16.058.083-19.848 3.059-20.536 17.572-.378 7.99-4.55 15.962-7.823 23.595-2.046 4.776-5.573 6.497-11.975 5.508-12.294-1.901-24.936-1.908-37.44-2.016-16.136-.141-15.594 1.712-31.73 1.543-5.848-.061-9.308-3.715-7.938-10.102l8.315-29.616Zm150.146-188.823-3.85.394c-3.263 8.611-7.025 17.072-9.693 25.864-6.705 22.098-12.752 44.395-19.403 66.51-2.749 9.138-.235 13.3 8.997 13.423 2.95.04 5.903.948 8.835.854 12.756-.408 25.519-.858 38.236-1.836 1.468-.113 3.745-3.6 3.779-5.554.073-4.213-.675-8.553-1.778-12.656-5.746-21.393-11.612-42.756-17.649-64.07-2.188-7.729-4.966-15.29-7.474-22.929ZM2584.12 8.562c-6.582-4.775-14.139-7.15-22.175-7.27-3.818-.059-7.753.1-11.54 1.993-4.256 2.126-9.466 2.025-13.327 5.397-2.68 2.34-5.675 4.33-8.281 6.74-3.078 2.848-5.735 6.056-7.627 9.91-1.716 3.49-4.169 6.636-5.723 10.185-1.261 2.876-1.993 6.084-2.37 9.218-.433 3.58-1.197 7.255.306 10.847 1.598 3.823 3.085 7.692 4.637 11.585 1.712 6.794 6.88 11.319 11.425 16.1 3.165 3.329 7.267 5.824 11.132 8.42 5.836 3.922 12.674 4.81 19.393 4.867 4.394.036 9.033-1.032 13.144-2.661 5.157-2.046 10.306-4.618 14.708-7.951 7.698-5.829 13.461-13.395 16.848-22.616 2.927-7.97 3.606-16.021.633-24.048-1.613-4.354-3.554-8.667-5.952-12.632-2.624-4.334-5.805-8.359-9.016-12.297-1.773-2.177-3.935-4.134-6.215-5.787ZM332.957 208.948c-4.235-3.071-9.096-4.6-14.266-4.677-2.456-.037-4.987.065-7.423 1.282-2.739 1.368-6.09 1.303-8.574 3.473-1.724 1.505-3.65 2.785-5.327 4.335-1.98 1.833-3.69 3.896-4.907 6.375-1.103 2.246-2.681 4.27-3.681 6.553-.812 1.85-1.282 3.914-1.525 5.93-.279 2.303-.77 4.667.197 6.977 1.028 2.46 1.985 4.95 2.983 7.453 1.101 4.37 4.426 7.282 7.35 10.357 2.036 2.142 4.675 3.747 7.161 5.417 3.754 2.523 8.153 3.094 12.476 3.13 2.826.025 5.81-.663 8.455-1.711 3.318-1.316 6.63-2.97 9.462-5.115 4.952-3.75 8.66-8.617 10.838-14.549 1.883-5.127 2.32-10.306.408-15.47-1.038-2.801-2.287-5.575-3.83-8.126-1.687-2.788-3.734-5.377-5.8-7.91-1.14-1.402-2.53-2.66-3.997-3.724ZM332.957 367.45c-4.235-3.07-9.096-4.599-14.266-4.677-2.456-.037-4.987.065-7.423 1.283-2.739 1.367-6.09 1.303-8.574 3.472-1.724 1.506-3.65 2.785-5.327 4.336-1.98 1.832-3.69 3.896-4.907 6.374-1.103 2.246-2.681 4.27-3.681 6.553-.812 1.85-1.282 3.914-1.525 5.93-.279 2.303-.77 4.667.197 6.978 1.028 2.46 1.985 4.949 2.983 7.453 1.101 4.37 4.426 7.281 7.35 10.357 2.036 2.141 4.675 3.747 7.161 5.417 3.754 2.522 8.153 3.093 12.476 3.13 2.826.024 5.81-.664 8.455-1.712 3.318-1.316 6.63-2.97 9.462-5.114 4.952-3.75 8.66-8.617 10.838-14.55 1.883-5.127 2.32-10.306.408-15.47-1.038-2.8-2.287-5.575-3.83-8.126-1.687-2.788-3.734-5.377-5.8-7.91-1.14-1.401-2.53-2.66-3.997-3.723ZM329.38 899.874l8.798-15.157c1.958-3.422 6.112-3.422 8.313-1.711 1.223.732 21.023 15.157 36.912 15.157 12.712 0 22.248-8.313 22.248-18.823 0-12.468-10.512-21.025-31.047-29.336-22.98-9.29-45.96-23.958-45.96-52.803 0-21.757 16.136-46.937 55.004-46.937 24.935 0 44.004 12.712 48.893 16.38 2.443 1.465 3.178 5.622 1.467 8.067l-9.29 13.934c-1.955 2.932-5.623 4.89-8.557 2.932-1.955-1.22-20.534-13.444-33.978-13.444-13.935 0-21.513 9.29-21.513 17.112 0 11.49 9.045 19.312 28.845 27.379 23.712 9.533 51.093 23.712 51.093 55.249 0 25.179-21.757 48.403-56.226 48.403-30.802 0-48.891-14.425-53.78-19.07-2.201-2.2-3.424-3.422-1.223-7.332ZM514.192 753.93c.244-1.954 1.71-3.666 4.398-3.666h3.913c1.955 0 3.422.98 4.156 2.446l53.78 115.383h.733l53.782-115.383c.732-1.467 1.955-2.446 4.154-2.446h3.913c2.69 0 4.156 1.712 4.4 3.667l28.845 164.276c.735 3.424-1.222 5.623-4.4 5.623H649.62c-2.2 0-4.155-1.955-4.645-3.666l-14.423-92.651h-.732l-42.782 96.073c-.488 1.467-1.955 2.69-4.154 2.69h-4.4c-2.202 0-3.423-1.223-4.157-2.69l-43.27-96.073h-.733l-14.178 92.651c-.244 1.711-2.202 3.666-4.4 3.666h-22.002c-3.178 0-5.133-2.2-4.645-5.623l29.092-164.276ZM711.958 917.474l76.027-164.52c.733-1.467 1.955-2.69 4.155-2.69h2.445c2.444 0 3.422 1.223 4.155 2.69l75.295 164.52c1.466 3.178-.49 6.356-4.157 6.356H848.61c-3.666 0-5.377-1.467-7.088-4.889l-11.979-26.402h-73.094l-11.977 26.402c-.978 2.444-3.178 4.89-7.09 4.89h-21.267c-3.668 0-5.623-3.179-4.156-6.357Zm53.292-205.588c0-15.402 12.223-27.625 27.624-27.625 15.155 0 27.623 12.223 27.623 27.625 0 15.399-12.468 27.622-27.623 27.622-15.401 0-27.624-12.223-27.624-27.622Zm52.313 153.52-24.445-53.783h-.734l-23.957 53.782h49.136Zm-12.956-153.52c0-6.358-5.377-11.735-11.733-11.735-6.356 0-12.223 5.377-12.223 11.735 0 6.355 5.867 12.22 12.223 12.22 6.356 0 11.733-5.865 11.733-12.22ZM920.727 757.355c0-2.446 1.955-4.645 4.644-4.645h55.982c29.091 0 51.58 19.556 51.58 45.225 0 18.823-15.4 33.49-26.89 38.867 12.956 4.157 31.78 17.357 31.78 39.848 0 27.378-23.469 47.18-53.292 47.18h-59.16c-2.69 0-4.644-2.2-4.644-4.645v-161.83Zm57.692 67.226c12.467 0 21.024-9.78 21.024-22.001 0-12.224-8.557-20.78-21.024-20.78H952.26v42.78h26.158Zm3.422 70.404c12.223 0 22.001-9.536 22.001-22.247 0-12.222-12.221-21.267-24.935-21.267h-26.646v43.514h29.58ZM1096.003 757.355c0-2.446 1.955-4.645 4.645-4.645h69.916c29.335 0 53.292 23.468 53.292 52.557 0 22.492-14.913 40.825-36.18 49.382l33.49 62.09c1.711 3.179 0 7.091-4.155 7.091h-25.669c-2.2 0-3.422-1.223-3.91-2.2l-32.514-64.782h-27.134v62.337c0 2.446-2.201 4.645-4.645 4.645h-22.491c-2.69 0-4.645-2.2-4.645-4.645v-161.83Zm71.871 73.335c12.956 0 24.203-11.244 24.203-24.932 0-12.958-11.247-23.715-24.203-23.715h-39.846v48.647h39.846ZM1280.814 757.355c0-2.446 2.199-4.645 4.644-4.645h23.222c2.69 0 4.645 2.2 4.645 4.645v99.981c0 20.78 14.178 37.159 35.447 37.159 21.269 0 35.692-16.378 35.692-36.912V757.355c0-2.446 1.955-4.645 4.644-4.645h23.224c2.444 0 4.645 2.2 4.645 4.645v101.694c0 37.157-29.58 67.227-68.205 67.227-38.379 0-67.958-30.07-67.958-67.226V757.354ZM1483.47 758.575c0-3.177 2.446-5.865 5.868-5.865h21.513c3.178 0 5.865 2.688 5.865 5.865v66.006l61.605-69.428c.977-1.222 2.444-2.443 4.645-2.443h24.445c4.644 0 7.09 5.133 3.912 8.8l-63.804 71.87 68.449 81.895c2.443 3.178.488 8.555-4.4 8.555h-26.647c-2.445 0-3.91-.978-4.4-1.71l-63.805-78.716v74.559c0 3.178-2.687 5.867-5.865 5.867h-21.513c-3.422 0-5.867-2.69-5.867-5.867V758.575ZM2176.116 759.792c0-2.445 2.201-4.645 4.647-4.645h22.733c2.69 0 4.643 2.2 4.643 4.645v64.78h79.696v-64.78c0-2.445 1.953-4.645 4.642-4.645h22.49c2.445 0 4.647 2.2 4.647 4.645v161.83c0 2.446-2.202 4.646-4.647 4.646h-22.49c-2.69 0-4.642-2.2-4.642-4.645v-67.47h-79.696v67.47c0 2.445-1.953 4.645-4.643 4.645h-22.733c-2.446 0-4.647-2.2-4.647-4.645v-161.83ZM2366.31 919.912l76.025-164.52c.737-1.467 1.957-2.69 4.158-2.69h2.442c2.445 0 3.426 1.223 4.159 2.69l75.292 164.52c1.465 3.178-.488 6.356-4.158 6.356h-21.265c-3.67 0-5.379-1.467-7.092-4.89l-11.975-26.401H2410.8l-11.979 26.402c-.977 2.443-3.178 4.889-7.088 4.889h-21.269c-3.666 0-5.62-3.178-4.154-6.356Zm105.607-52.07-24.447-53.782h-.732l-23.959 53.783h49.138ZM2575.078 757.102c0-2.445 2.202-4.4 4.647-4.4h6.112l101.693 108.05h.244v-100.96c0-2.445 1.957-4.645 4.646-4.645h22.49c2.445 0 4.642 2.2 4.642 4.645v164.52c0 2.444-2.197 4.401-4.642 4.401h-5.868l-102.185-112.207h-.244v105.117c0 2.445-1.953 4.645-4.643 4.645h-22.245c-2.445 0-4.647-2.2-4.647-4.645v-164.52ZM2811.468 784.48h-37.403c-2.685 0-4.643-2.199-4.643-4.644v-20.044c0-2.445 1.958-4.645 4.643-4.645h106.832c2.69 0 4.643 2.2 4.643 4.645v20.044c0 2.445-1.953 4.645-4.643 4.645h-37.402v137.142c0 2.445-2.202 4.645-4.647 4.645h-22.734c-2.445 0-4.646-2.2-4.646-4.645V784.48ZM2920.252 761.503c-1.464-3.178.489-6.356 4.155-6.356h24.935c2.201 0 3.666 1.467 4.158 2.688l46.936 105.119h1.71l46.935-105.12c.489-1.22 1.958-2.687 4.159-2.687h24.93c3.671 0 5.624 3.178 4.16 6.356l-75.782 164.52c-.736 1.467-1.957 2.69-4.159 2.69h-2.445c-2.197 0-3.422-1.223-4.154-2.69l-75.538-164.52ZM3129.021 759.792c0-2.445 1.957-4.645 4.647-4.645h99.491c2.69 0 4.647 2.2 4.647 4.645v20.044c0 2.445-1.957 4.645-4.647 4.645H3160.8v40.092h60.384c2.442 0 4.643 2.199 4.643 4.645v20.29c0 2.69-2.201 4.644-4.643 4.644H3160.8v42.78h72.36c2.689 0 4.646 2.201 4.646 4.645v20.046c0 2.445-1.957 4.645-4.647 4.645h-99.491c-2.69 0-4.647-2.2-4.647-4.645v-161.83ZM3297.214 759.792c0-2.445 1.957-4.645 4.647-4.645h69.913c29.334 0 53.292 23.468 53.292 52.558 0 22.491-14.913 40.824-36.181 49.381l33.491 62.091c1.714 3.178 0 7.09-4.154 7.09h-25.667c-2.202 0-3.426-1.222-3.915-2.199l-32.511-64.783h-27.136v62.338c0 2.445-2.198 4.645-4.643 4.645h-22.49c-2.69 0-4.646-2.2-4.646-4.645v-161.83Zm71.87 73.336c12.956 0 24.203-11.245 24.203-24.933 0-12.958-11.247-23.714-24.202-23.714h-39.848v48.647h39.848ZM3484.466 761.013c0-3.178 2.445-5.866 5.867-5.866h21.513c3.178 0 5.867 2.688 5.867 5.866v66.005l61.601-69.427c.98-1.223 2.446-2.444 4.647-2.444h24.446c4.643 0 7.089 5.133 3.91 8.8l-63.801 71.87 68.445 81.895c2.445 3.178.492 8.556-4.399 8.556h-26.644c-2.445 0-3.914-.98-4.403-1.712l-63.802-78.715V920.4c0 3.178-2.69 5.868-5.867 5.868h-21.513c-3.422 0-5.867-2.69-5.867-5.868V761.013Z"/>
    </g>
</svg>