<svg width="64" height="64" viewBox="0 0 64 64" fill="none" xmlns="http://www.w3.org/2000/svg">
  <circle cx="36" cy="24" r="14" fill="#C4956A" opacity="0.12"/>
  <circle cx="36" cy="24" r="14" stroke="#C4956A" stroke-width="1.5" fill="none" opacity="0.3"/>
  <line x1="53" y1="24" x2="56" y2="24" stroke="#C4956A" stroke-width="1.2" stroke-linecap="round" opacity="0.2"/>
  <line x1="48.02" y1="11.98" x2="50.14" y2="9.86" stroke="#C4956A" stroke-width="1.2" stroke-linecap="round" opacity="0.2"/>
  <line x1="36" y1="7" x2="36" y2="4" stroke="#C4956A" stroke-width="1.2" stroke-linecap="round" opacity="0.2"/>
  <line x1="23.98" y1="11.98" x2="21.86" y2="9.86" stroke="#C4956A" stroke-width="1.2" stroke-linecap="round" opacity="0.2"/>
  <line x1="19" y1="24" x2="16" y2="24" stroke="#C4956A" stroke-width="1.2" stroke-linecap="round" opacity="0.2"/>
  <line x1="23.98" y1="36.02" x2="21.86" y2="38.14" stroke="#C4956A" stroke-width="1.2" stroke-linecap="round" opacity="0.2"/>
  <line x1="36" y1="41" x2="36" y2="44" stroke="#C4956A" stroke-width="1.2" stroke-linecap="round" opacity="0.2"/>
  <line x1="48.02" y1="36.02" x2="50.14" y2="38.14" stroke="#C4956A" stroke-width="1.2" stroke-linecap="round" opacity="0.2"/>
  <path d="M24 56 C14 48, 8 34, 12 22 C14 16, 20 12, 28 14 C36 16, 40 24, 38 34 C36 44, 30 52, 24 56Z" fill="#3D6B4F" opacity="0.15"/>
  <path d="M24 56 C14 48, 8 34, 12 22 C14 16, 20 12, 28 14 C36 16, 40 24, 38 34 C36 44, 30 52, 24 56Z" stroke="#3D6B4F" stroke-width="2" fill="none"/>
  <path d="M26 16 C24 24, 24 40, 24 54" stroke="#3D6B4F" stroke-width="1.5" stroke-linecap="round" opacity="0.5"/>
  <path d="M26 28 C20 24, 14 24" stroke="#3D6B4F" stroke-width="1" stroke-linecap="round" opacity="0.3"/>
  <path d="M25 38 C20 36, 14 36" stroke="#3D6B4F" stroke-width="1" stroke-linecap="round" opacity="0.25"/>
  <path d="M26 28 C32 26, 36 28" stroke="#3D6B4F" stroke-width="1" stroke-linecap="round" opacity="0.25"/>
</svg>
