<?xml version="1.0" encoding="UTF-8"?>
<!-- Generated by Pixelmator Pro 3.6.4 -->
<svg width="320" height="320" viewBox="0 0 320 320" xmlns="http://www.w3.org/2000/svg">
    <path id="Rectangle" fill="#567762" fill-rule="evenodd" stroke="none" d="M 0 320 L 320 320 L 320 0 L 0 0 Z"/>
    <g id="Layer-1">
        <path id="Path" fill="#ffffff" stroke="none" d="M 207.472717 140.131561 C 206.105133 139.646957 204.83696 139.67511 203.581116 140.484116 C 202.769623 141.006866 201.881973 141.411377 200.687729 142.051483 C 199.903488 138.762466 199.156158 135.908966 198.557602 133.024567 C 198.118134 130.906754 197.031631 129.304382 195.34198 128.009842 C 194.22905 127.15715 193.011795 126.89006 191.747452 127.341934 C 188.845657 128.379044 186.071259 129.720764 184.264175 132.339966 C 183.629028 133.260605 183.024094 134.578323 183.174942 135.601227 C 183.910049 140.586029 183.395432 145.824661 186.132797 150.346878 C 185.822388 150.663666 185.677765 150.895599 185.468765 151.012177 C 180.586655 153.735138 175.686356 156.396393 171.039032 159.551376 C 167.419662 162.008484 163.385361 163.866089 159.487625 165.898346 C 158.644028 166.338211 157.797714 166.772858 156.95192 167.208511 C 155.844818 163.366592 154.420822 159.646896 152.17923 156.221268 C 150.990433 154.404587 150.21788 146.178085 150.815231 143.773102 C 151.827377 139.69809 154.038101 136.296631 156.956512 133.369537 C 159.506042 130.812164 161.649704 128.02533 163.344299 124.81131 C 166.150055 119.489609 164.871582 114.669769 161.937149 109.973557 C 161.141754 108.700546 159.926834 108.121979 158.360306 108.059906 C 156.260727 107.976654 154.329865 108.371277 152.797226 109.804459 C 150.61676 111.843536 148.350906 113.849609 146.506393 116.175003 C 144.233139 119.040741 142.964737 122.606796 143.144699 126.186813 C 143.494522 133.147736 143.65184 140.191696 146.067154 146.8853 C 146.162094 147.148712 146.106934 147.466446 146.146606 148.250351 C 142.947647 144.342255 140.347626 140.635681 138.216049 136.590149 C 134.138092 128.850418 128.928238 122.018539 122.048698 116.51886 C 120.263626 115.091766 118.304916 114.432404 116.055786 114.432098 C 114.951408 114.431854 114.162132 114.873093 113.550171 115.779465 C 112.221031 117.748184 112.445313 119.800476 113.486664 121.696777 C 114.481606 123.508957 115.584099 125.363998 117.031342 126.807175 C 121.568352 131.331161 126.190361 135.810242 132.094055 138.595047 C 137.239655 141.022202 140.926575 145.025055 144.164963 149.535889 C 145.135254 150.887329 146.137726 152.222092 147.013107 153.634079 C 148.759216 156.450211 150.788696 159.163727 152.05246 162.190491 C 152.919052 164.266327 153.733505 166.358871 154.486786 168.473328 C 151.09935 170.202042 147.701202 171.910126 144.305893 173.623352 C 143.162613 174.200241 142.731979 174.363373 141.110275 175.563309 C 140.049728 176.184341 138.245132 177.374069 137.465973 177.873764 C 132.324768 181.171021 129.011902 184.411865 123.746407 187.499329 C 120.690453 189.291199 118.202019 191.680267 115.619522 193.994781 C 114.947281 194.597244 114.414406 195.442139 114.047989 196.276855 C 113.591194 197.317322 114.398933 198.208649 115.496155 197.888107 C 116.291695 197.655701 117.010231 197.148956 117.751503 196.743378 C 121.619003 194.627228 125.485489 192.509216 129.347 190.382156 C 132.314621 188.747437 135.305405 187.151199 138.225891 185.435745 C 139.9767 184.407333 141.535995 183.042221 143.315643 182.075638 C 146.891571 180.133392 150.562851 178.367081 154.187973 176.514923 C 155.009903 176.094971 155.829086 175.669525 156.647934 175.243454 C 157.215057 177.267151 157.716614 179.316177 158.142807 181.395645 C 159.633087 188.665787 160.809402 195.973175 161.680161 203.315277 C 162.106064 206.906693 163.089523 210.301758 163.876678 213.773407 C 164.135361 214.914185 164.825455 215.476242 166.335754 214.966949 C 166.302078 213.596069 166.416916 212.185089 166.208145 210.823608 C 165.3255 205.068253 164.462204 199.305496 163.366577 193.588623 C 162.475342 188.938828 161.286484 184.345062 160.184738 179.737091 C 159.737839 177.867966 159.212402 176.017563 158.72818 174.157425 C 159.170731 173.925507 159.613571 173.694153 160.056046 173.462112 C 164.112305 171.3349 168.169861 169.210098 172.219025 167.069489 C 177.466904 164.295212 182.673065 161.43924 187.966095 158.754288 C 190.359467 157.540222 190.382645 157.731659 191.633881 160.020599 C 193.912033 164.18811 196.190781 168.360901 198.660858 172.414749 C 199.465393 173.735077 200.738358 174.879272 202.030075 175.763779 C 203.414246 176.711609 204.884399 176.215469 205.729736 174.794525 C 206.609116 173.316483 207.220184 171.729095 206.934311 169.949005 C 206.67868 168.35733 206.388031 166.771378 206.121292 165.181458 C 205.251343 159.996338 204.385208 154.810593 203.517593 149.625076 C 205.936279 148.684402 208.041077 147.35791 209.328842 144.986847 C 210.413361 142.989975 209.603592 140.886597 207.472717 140.131561 Z"/>
        <path id="path1" fill="#ffffff" stroke="none" d="M 62.617134 179.255371 C 60.3647 178.40126 58.120132 177.525696 55.857998 176.698074 C 52.501709 175.470169 49.151787 174.220062 45.76371 173.085251 C 42.950848 172.143066 40.072567 171.397736 37.249363 170.484512 C 34.214504 169.502884 31.232033 168.355621 28.183701 167.420822 C 26.51782 166.909988 25.942747 165.824173 26.135967 164.288177 L 25.954252 160.19136 C 25.834364 157.999451 26.460831 157.36528 28.540934 156.838593 C 30.49593 156.343552 32.388199 155.60025 34.307167 154.963516 L 43.398205 152.236481 C 45.527756 151.614487 47.65387 150.972931 49.753071 150.256683 C 52.252045 149.404022 54.707527 148.423813 57.206135 147.569977 C 59.585312 146.756973 61.982048 145.988129 64.39698 145.289536 C 66.174446 144.77533 66.821091 145.472748 67.146027 147.290482 C 67.521378 149.390274 67.087921 149.500793 67.039078 151.546463 C 67.013359 152.624069 67.070908 153.723999 66.860527 154.767471 C 66.770012 155.2164 66.149841 155.651627 65.670746 155.904099 C 65.151764 156.177582 64.516411 156.229446 63.932404 156.38028 C 62.065247 156.862457 62.052017 156.862656 62.022305 158.703201 C 61.978195 161.436234 61.929138 164.169632 61.932369 166.902786 C 61.934525 168.720108 62.269577 169.150284 63.911697 169.234634 C 64.815811 169.281052 65.716042 169.756851 66.578392 170.130524 C 67.117958 170.364319 67.311172 170.764175 67.196297 171.48819 C 66.97567 172.878693 66.969284 174.309326 66.951363 175.724258 C 66.928223 177.550278 67.138115 177.489853 67.111801 179.31575 C 67.102272 179.977692 66.687233 180.367584 65.96505 180.209671 L 62.617134 179.255371 Z M 41.315811 162.179001 C 41.330097 162.324265 41.344379 162.469528 41.358658 162.614792 C 42.331722 162.987991 43.287464 163.417511 44.281265 163.723389 C 46.779068 164.492081 49.299706 165.186401 51.799438 165.949051 C 52.832287 166.264191 53.304321 165.981613 53.322453 164.936859 C 53.328251 164.603088 53.432407 164.269241 53.423088 163.937378 C 53.382614 162.493637 53.337425 161.049133 53.232418 159.609421 C 53.220303 159.443344 52.826797 159.184128 52.605553 159.179337 C 52.128815 159.169113 51.637363 159.251923 51.172569 159.374832 C 48.748932 160.015564 46.328697 160.669815 43.913967 161.343414 C 43.038364 161.587646 42.181324 161.898514 41.315811 162.179001 Z"/>
        <path id="path2" fill="#ffffff" stroke="none" d="M 50.985382 86.421539 C 51.96962 85.050034 52.938137 83.666809 53.947197 82.313828 M 84.445442 80.944946 C 84.445442 80.944946 86.483444 80.847275 89.772781 83.04425 C 92.935715 85.172607 93.534431 87.326599 94.203812 91.013367 C 94.237411 91.198471 94.301201 91.394501 94.271332 91.572083 C 94.07476 92.74057 93.848656 93.904083 93.647301 95.071808 C 93.469337 96.103928 92.873108 97.216995 92.542511 97.950195 C 92.211914 98.683395 91.782402 99.707886 91.263657 100.499954 C 90.035637 102.374893 88.720451 104.193298 87.421783 106.021255 C 85.820251 108.275574 84.201759 110.517807 82.586632 112.762436 C 81.555878 114.194962 80.867569 114.024887 79.670776 113.092285 C 78.980751 112.554611 78.404121 112.302444 77.806526 111.854111 C 76.338974 110.753128 74.911865 109.598297 73.446678 108.494049 C 72.310303 107.637619 71.118439 106.854126 69.991058 105.986481 C 67.787979 104.290924 65.622871 102.545975 63.417191 100.853882 C 62.987476 100.524216 51.033459 91.841003 50.183949 91.070343 C 49.442924 90.398117 49.129234 89.660156 49.557049 88.762161 C 49.557049 88.762161 50.993496 86.278427 53.348396 83.117554 C 55.703293 79.956665 57.931366 77.270752 58.678505 76.604553 C 60.050278 75.381348 61.272903 74.047272 63.187454 73.445831 C 64.71714 72.965363 66.162552 72.246521 67.805206 72.248367 C 68.486954 72.249115 69.241196 72.1922 69.836914 72.450745 C 71.816925 73.310059 74.123772 73.744461 75.397438 75.700363 C 76.402695 77.244064 77.017921 78.878326 77.850464 80.531158 C 77.936569 80.702118 77.942062 81.049835 77.953789 81.270172 C 77.972023 81.6129 77.941017 82.203033 78.075768 82.247269 C 78.429123 82.363266 78.898354 82.333847 79.252037 82.190811 C 79.252037 82.190811 81.684044 80.662613 84.445442 80.944946 Z M 72.550446 96.175735 C 72.6511 96.32283 72.694946 96.44014 72.779373 96.502487 C 75.076378 98.198471 77.354744 99.921265 79.689072 101.564484 C 80.6418 102.235138 81.547081 101.795776 82.024689 100.698715 C 82.440819 99.742844 82.836624 98.724945 83.485329 97.934647 C 84.794716 96.339493 84.945602 94.526733 84.736359 92.644196 C 84.672844 92.072769 84.264694 91.435669 83.828171 91.028122 C 82.062996 89.380157 78.930847 89.419785 77.098907 91.2034 C 75.511536 92.748917 74.096359 94.471298 72.550446 96.175735 Z M 62.666245 84.847412 C 62.200668 85.360718 61.867092 85.720993 61.541813 86.088623 C 60.744408 86.989807 60.897732 87.722031 61.866821 88.439896 C 63.346077 89.53569 64.78167 90.692795 66.201553 91.865372 C 66.963379 92.494492 67.913651 92.385147 68.3675 91.539307 C 68.649742 91.01326 68.982841 90.512177 69.234642 89.97261 C 69.861855 88.628693 70.754349 87.344162 70.389397 85.734787 C 69.918762 83.659485 68.895538 82.48291 67.078621 82.784882 C 65.386017 83.066147 63.503273 83.153885 62.666245 84.847412 Z"/>
        <path id="path3" fill="#ffffff" stroke="none" d="M 227.877762 78.253143 C 227.244858 77.951996 226.586594 77.694214 225.984314 77.340912 C 224.635361 76.549576 223.298981 75.734268 221.98703 74.883255 C 221.048447 74.274475 220.878983 73.137039 221.534637 72.205231 C 221.902863 71.68187 222.297852 71.177261 222.680893 70.664322 C 223.584167 69.454636 224.643005 69.348068 225.882019 70.175339 C 227.217819 71.0672 228.632416 71.841187 230.014359 72.663666 C 232.423996 74.097778 234.835037 75.52951 237.244949 76.963181 C 237.276855 76.982132 237.29837 77.018173 237.330048 77.037827 C 237.800781 77.330017 238.678604 77.643021 238.664185 77.907532 C 238.627853 78.573196 238.252716 79.253937 237.898407 79.861618 C 237.123978 81.18985 236.444046 82.631256 235.413528 83.735306 C 234.439194 84.779129 233.152237 85.635376 231.848633 86.244308 C 229.690018 87.252625 227.460266 88.204086 225.160706 88.784912 C 223.354172 89.241196 220.321487 89.179672 218.466125 88.646027 C 216.610748 88.112411 213.023254 86.465179 210.701981 84.438324 C 208.380707 82.411484 207.030792 80.854752 205.041519 78.116241 C 204.54512 77.432877 204.274979 76.50647 203.964615 75.665359 C 203.470108 74.325302 202.969162 72.983093 202.577271 71.611465 C 202.33429 70.761032 202.20401 69.857468 202.172485 68.972473 C 202.124329 67.620544 202.068787 66.244476 202.259399 64.913498 C 202.678604 61.986877 204.148453 59.502228 205.708786 57.032806 C 207.490143 54.213623 210.040085 52.276093 212.784943 50.612701 C 214.010086 49.870209 215.586441 49.64975 217.036041 49.350159 C 218.618134 49.023163 220.233871 48.749969 221.842804 48.698883 C 222.97644 48.662842 224.429626 48.717987 225.209091 48.807251 C 225.988556 48.896515 228.764999 49.559875 230.486588 50.356445 C 232.208176 51.153015 233.387344 51.920349 234.294449 52.678833 C 235.39859 53.602051 236.370956 54.684143 237.387344 55.710358 C 237.830521 56.157837 238.27034 56.614166 238.662155 57.105957 C 240.804184 59.794586 241.693588 63.032379 242.385971 66.282761 C 242.722015 67.860367 242.483887 69.573639 242.404007 71.220535 C 242.365372 72.016159 241.733231 72.436035 240.969864 72.316818 C 239.681732 72.115616 238.40625 71.818512 237.137756 71.510956 C 236.086533 71.256149 235.038696 70.967957 234.022385 70.602676 C 233.787933 70.518417 233.512604 70.030731 233.553741 69.776978 C 233.952484 67.317123 233.08728 65.241943 231.890213 63.154877 C 230.695801 61.072388 228.73262 59.919647 226.847687 58.786713 C 225.560989 58.013367 223.855911 57.783813 222.3078 57.643066 C 220.923523 57.517242 219.310303 57.468658 218.130722 58.05481 C 215.84613 59.190063 213.816864 60.748932 212.564758 63.187805 C 211.397736 65.460907 210.773361 67.806839 210.768723 70.322479 C 210.767441 71.013657 211.057159 71.711975 211.25235 72.395859 C 211.895126 74.647415 213.186386 76.426895 214.7995 78.151505 C 216.065887 79.505493 217.508255 79.772202 219.075974 80.242004 C 221.788132 81.054733 224.124069 79.994736 226.530426 79.12796 C 226.977386 78.966965 227.408966 78.763245 227.847626 78.579224 C 227.857666 78.470535 227.867691 78.361832 227.877762 78.253143 Z"/>
        <path id="path4" fill="#ffffff" stroke="none" d="M 289.9617 140.777664 C 290.20575 142.478714 290.292145 143.32724 290.504211 145.034744 C 290.768646 147.163788 290.913574 148.281754 291.176575 150.410904 C 291.331909 151.668076 291.296875 152.953644 291.283997 154.2258 C 291.258026 156.795364 290.747894 159.306503 289.926514 161.713287 C 289.190155 163.870972 287.233704 164.934998 285.364838 166.013733 C 282.707245 167.547699 279.752075 168.044373 276.870087 167.50592 C 273.047363 166.791687 269.715515 165.013824 268.11319 161.055298 C 267.755585 160.17186 267.189148 159.373032 266.576294 158.281342 C 265.239532 159.666962 263.980713 160.993149 262.697601 162.295349 C 261.614044 163.394958 260.498444 164.462799 259.40448 165.552246 C 258.660522 166.293091 257.952301 167.071472 257.183716 167.785263 C 256.749634 168.188385 256.267517 168.590775 255.733047 168.823502 C 254.809967 169.225464 254.294891 168.917099 254.129303 167.915131 C 253.77002 165.740967 253.404617 163.565704 253.136459 161.379272 C 252.934189 159.729874 253.28772 158.305359 254.820862 157.247055 C 256.20932 156.288635 257.377289 155.016663 258.726807 153.994293 C 260.48465 152.662598 262.330688 151.447769 264.125031 150.163406 C 264.371887 149.98671 264.539764 149.69957 264.744202 149.463577 C 264.46051 149.318787 264.188446 149.091736 263.890167 149.049362 C 263.488342 148.99231 263.05777 149.032562 262.654358 149.109085 C 260.440491 149.529144 258.23233 149.978973 256.019409 150.404007 C 255.54126 150.495865 255.05278 150.568024 254.56723 150.5811 C 250.92543 150.808273 251.702042 150.618912 251.016769 147.869278 C 250.770767 146.882233 250.533447 145.892914 250.275558 144.908981 C 249.848648 143.28006 250.436295 142.53157 252.11116 142.331299 C 253.331802 142.185394 254.522888 141.807373 255.737747 141.593033 C 256.685944 141.425766 257.651733 141.360199 258.607544 141.233154 C 260.06308 141.039627 261.518616 140.844406 262.970856 140.627701 C 265.562286 140.240982 273.777557 140.067291 276.356232 139.607269 C 276.356232 139.607269 289.047333 136.316971 289.9617 140.777664 Z M 279.127472 147.141525 C 276.737549 147.338562 274.532898 147.498322 272.336151 147.732071 C 272.089478 147.758331 271.687561 148.212799 271.698761 148.452744 C 271.750549 149.563477 271.738342 150.731873 272.091278 151.762299 C 272.774963 153.758179 272.89621 155.961121 274.568481 157.616974 C 275.97876 159.013489 277.575439 159.357773 279.304962 158.930588 C 281.050964 158.499344 282.255066 156.560394 282.318695 154.597519 C 282.354156 153.504272 282.440979 152.401337 282.340729 151.317947 C 282.217285 149.983475 282.08371 148.540955 281.064941 147.583588 C 280.616211 147.16188 279.685913 147.252838 279.127472 147.141525 Z"/>
        <path id="path5" fill="#ffffff" stroke="none" d="M 220.343384 261.193329 C 219.763611 259.895477 219.341248 258.845703 218.835144 257.838776 C 217.789337 255.758118 216.716415 253.690735 215.621124 251.6362 C 214.792725 250.082336 213.894073 248.566895 213.062332 247.014832 C 212.597382 246.147278 212.227936 245.227692 211.773727 244.353699 C 211.303619 243.449005 210.804977 242.557281 210.278061 241.685532 C 209.786667 240.872467 209.580566 240.197845 210.569214 239.684357 C 211.348831 239.279388 212.076004 238.771423 212.826035 238.308472 C 213.856354 237.672516 214.907288 237.068619 215.91098 236.39122 C 217.154327 235.552078 217.500854 235.583374 218.137375 236.990585 C 219.246643 239.442749 220.233795 241.950882 221.366196 244.391663 C 222.375244 246.566528 223.515747 248.679932 224.589828 250.824722 C 225.033218 251.710114 225.438156 252.615356 225.88913 253.496658 C 227.435913 256.51947 228.989304 259.53891 230.55217 262.553253 C 231.530853 264.440765 232.546707 266.308716 233.516006 268.20105 C 234.125885 269.391724 233.842575 269.933716 232.720718 270.462769 C 231.306305 271.129761 229.922913 271.88205 228.599808 272.718903 C 227.575714 273.366577 226.782684 273.393982 225.693146 272.716125 C 224.747131 272.127625 223.72934 271.670593 222.733078 271.18045 C 220.948242 270.302307 219.155243 269.444061 217.366531 268.575348 C 215.092896 267.471161 212.811768 266.384857 210.549026 265.254425 C 207.559845 263.761108 204.587662 262.226929 201.600342 260.729187 C 201.351334 260.60434 201.042725 260.622681 200.761795 260.574524 C 200.770416 260.895264 200.67572 261.267242 200.803711 261.528717 C 202.054001 264.083282 203.352615 266.61377 204.614563 269.162689 C 205.491623 270.934174 206.276154 272.754761 207.205673 274.496674 C 208.165817 276.295929 209.199509 278.061523 210.299988 279.775146 C 211.050766 280.944244 210.896484 282.109161 209.67926 282.814209 C 208.606247 283.435638 207.515732 284.026093 206.427292 284.619568 C 206.071548 284.813538 205.703232 284.985992 205.331726 285.147797 C 203.403732 285.987579 203.275253 285.887817 202.275894 283.823578 C 200.417068 279.98407 198.491669 276.177277 196.613342 272.347229 C 196.160828 271.424622 195.840591 270.433838 195.362488 269.526733 C 193.283936 265.583191 191.143112 261.673035 189.083054 257.719849 C 188.390869 256.391602 187.848068 254.980499 187.293335 253.585266 C 187.193085 253.333069 187.25705 252.84433 187.43132 252.683777 C 189.387833 250.880325 191.591553 249.479767 194.165878 248.793335 C 194.626389 248.670517 195.257217 248.823883 195.71669 249.062958 C 198.192963 250.351471 200.636185 251.715622 203.098267 253.037231 C 205.251022 254.19281 207.387344 255.392334 209.579071 256.451874 C 211.9021 257.574921 214.283981 258.55011 216.635788 259.601898 C 217.431137 259.957642 218.208664 260.362122 219.003189 260.720306 C 219.359436 260.880859 219.737503 260.982239 220.343384 261.193329 Z"/>
        <path id="path6" fill="#ffffff" stroke="none" d="M 284.016663 206.911392 C 283.129181 208.549561 282.310364 210.230026 281.322906 211.806549 C 280.884491 212.506531 280.10553 212.996582 279.481232 213.582001 C 277.388611 215.544373 275.05719 217.152496 272.074707 217.648422 C 270.471863 217.914948 268.832458 218.049011 267.197937 218.136078 C 266.463593 218.175201 265.702057 217.917877 264.950623 217.85495 C 261.491211 217.565155 258.529755 215.940994 255.819168 213.966705 C 254.091568 212.70842 252.33876 211.322769 251.549866 209.154495 C 251.144119 208.039368 250.182526 207.09021 249.770416 205.97583 C 248.817444 203.398804 247.690536 200.846039 248.286072 198.014771 C 248.613251 196.459381 248.417984 194.78302 248.649155 193.19635 C 248.882706 191.593292 249.343018 190.031235 249.720291 188.455582 C 250.176041 186.552063 250.670532 184.658783 251.108963 182.750778 C 251.636658 180.454254 252.614243 180.072876 254.885941 181.058609 C 256.0914 181.581711 257.434814 181.775467 258.714355 182.124573 C 259.618652 182.371292 260.524078 182.615265 261.421906 182.886292 C 262.250214 183.136353 263.05603 183.491028 263.894623 183.67659 C 266.041626 184.151672 268.210266 184.512863 270.353241 185.0065 C 272.127075 185.4151 273.871887 185.968964 275.637939 186.421127 C 279.271454 187.351456 282.91333 188.244797 286.545074 189.182831 C 287.242889 189.363037 287.930115 189.636887 288.579712 189.955322 C 288.784698 190.055771 289.006714 190.48439 288.956879 190.691193 C 288.524902 192.483932 288.01355 194.255005 287.566254 196.043823 C 287.333344 196.97522 287.193512 197.93222 286.990692 198.872482 C 286.687225 200.279556 286.42041 201.699127 286.029816 203.07991 C 285.806458 203.869522 285.383728 204.600143 285.022827 205.343567 C 284.752533 205.900436 284.437592 206.435272 284.142517 206.97995 C 284.100586 206.957092 284.058624 206.934235 284.016663 206.911392 Z M 263.464142 209.994888 C 264.742065 210.16037 266.6315 210.682098 268.441742 210.561279 C 270.243622 210.441025 272.284241 210.407028 273.544189 208.77475 C 273.599579 208.702972 273.755676 208.712692 273.830688 208.647827 C 274.808777 207.801758 275.943573 207.069382 276.71167 206.066742 C 277.614563 204.888123 278.310883 203.522675 278.890442 202.148514 C 279.57785 200.518555 280.083954 198.80545 280.592285 197.103668 C 280.854767 196.224808 280.360535 195.610107 279.401276 195.440094 C 278.901672 195.351563 278.391052 195.33017 277.896576 195.219208 C 275.501465 194.681885 273.10968 194.126709 270.718109 193.57074 C 270.47052 193.513153 270.23468 193.39917 269.989258 193.326889 C 267.656189 192.639771 265.323303 191.952103 262.98822 191.272552 C 261.490662 190.836746 259.984253 190.433533 258.491882 189.979187 C 257.470581 189.668243 256.508026 190.108841 256.307739 191.048904 C 255.761475 193.613159 255.256927 196.168503 255.483612 198.864273 C 255.663345 201.001831 256.165558 203.014069 257.319672 204.891541 C 257.729279 205.557983 258.04303 206.371765 258.634705 206.824799 C 259.989807 207.862518 261.489014 208.719513 263.464142 209.994888 Z"/>
        <path id="path7" fill="#ffffff" stroke="none" d="M 96.993073 58.936523 C 96.950981 57.051086 96.933449 55.186035 96.860786 53.323181 C 96.792503 51.572906 97.693001 50.14386 98.438492 48.702667 C 99.090645 47.441864 99.903992 46.204224 100.887436 45.190277 C 102.101196 43.938843 103.629837 42.998474 104.902557 41.796783 C 106.306633 40.4711 107.930687 39.536346 109.676468 38.820282 C 111.1549 38.213867 112.729836 37.84671 114.227432 37.281921 C 116.386047 36.467834 118.566383 37.33017 120.695168 37.103516 C 122.588997 36.901855 124.271614 37.453552 125.872414 38.078674 C 129.240616 39.393982 132.052063 41.584259 134.076004 44.632141 C 134.776886 45.687653 135.380249 46.852631 135.785675 48.049683 C 136.518997 50.214935 137.227478 52.412079 137.650848 54.651703 C 138.038116 56.700378 138.177933 58.823181 138.172546 60.912659 C 138.162704 64.763565 136.610168 68.051086 134.122147 70.950089 C 131.243759 74.303909 127.624649 76.586868 123.462715 77.832458 C 121.082184 78.544907 118.507454 78.819046 116.011658 78.869461 C 114.022636 78.909607 111.898743 78.630615 110.05294 77.923706 C 107.229042 76.842209 104.485954 75.392044 102.643295 72.821274 C 101.422661 71.118317 100.086082 69.421555 99.27565 67.519989 C 98.112144 64.789993 96.645264 62.06958 96.993073 58.936523 Z M 118.058517 45.950897 C 113.569717 46.21756 110.22113 48.076508 107.645103 51.356506 C 106.425163 52.90979 106.005424 54.724121 105.696449 56.64679 C 105.225883 59.574921 105.546112 60.253998 106.512566 62.867218 C 107.084755 64.414337 107.36676 64.77594 108.07811 65.700684 C 108.660263 66.93042 109.933601 67.333496 111.010895 68.043289 C 112.889397 69.28093 114.880272 70.002167 117.231956 69.938019 C 119.472099 69.876892 121.656868 69.846344 123.605225 68.618774 C 124.491173 68.060577 125.411034 67.456314 126.077011 66.670853 C 127.274452 65.25853 128.625183 63.946442 129.008331 61.951355 C 129.402664 59.897949 129.503387 60.222595 129.767242 57.814453 C 129.775009 57.743622 129.75766 57.663391 129.740021 57.590668 C 128.873779 54.018951 128.654083 52.490234 126.006279 49.587463 C 123.702171 47.061493 120.92334 46.167999 118.058517 45.950897 Z"/>
        <path id="path8" fill="#ffffff" stroke="none" d="M 169.751053 29.571564 C 174.880646 29.56604 179.269394 32.119659 180.88884 32.660706 C 182.835571 33.685699 184.288849 34.412842 185.703812 35.208008 C 186.831818 35.841949 186.993942 36.968994 186.152634 37.942841 C 184.808121 39.499176 183.218277 40.770142 181.428177 41.763 C 181.057907 41.968384 180.41246 41.966431 180.021484 41.784973 C 179.245529 41.424866 178.511612 40.931 177.843735 40.389526 C 176.084244 38.963043 174.062927 38.533997 171.921585 38.963898 C 169.286514 39.492828 168.046082 42.766052 169.806595 44.637054 C 170.591904 45.471649 171.641815 45.830505 172.888779 46.369751 C 178.39183 48.68277 183.384277 50.103973 184.353775 53.901123 C 185.323273 57.698212 185.478424 59.746185 184.515198 62.471832 C 182.64299 65.110428 180.745682 67.683624 177.216064 68.60968 C 174.742126 69.258759 172.301224 69.513382 169.800812 69.582367 C 163.855331 69.593445 159.796143 67.21492 158.630783 66.492798 C 157.716339 65.926208 156.968475 65.097351 156.089706 64.463898 C 155.652069 64.148453 153.044922 63.098328 153.027191 62.281525 C 153.017059 61.814148 156.932587 58.02478 157.209946 57.649475 C 157.931641 56.672882 158.754471 56.387451 159.854675 56.936493 C 161.507034 57.761078 163.121277 58.661713 164.765442 59.503265 C 165.190002 59.72052 168.800018 60.824493 170.148911 60.891998 C 171.657364 60.967438 172.893158 60.042969 173.719986 58.616638 C 174.309647 57.599396 173.867584 56.993774 173.203186 56.364136 C 171.541122 54.789032 169.3629 54.37854 167.311844 53.603333 C 165.371918 52.870148 163.517105 51.750275 161.8564 50.494324 C 160.675323 49.601135 159.450027 48.580627 158.88002 47.04538 C 157.839401 44.242462 156.74585 41.467102 158.566803 38.564606 C 159.665283 36.813721 160.636292 34.968475 161.879471 33.328522 C 161.879471 33.328522 166.339737 29.44809 169.751053 29.571564 Z"/>
        <path id="path9" fill="#ffffff" stroke="none" d="M 244.377106 219.268799 C 246.972672 221.525665 249.568085 223.782654 252.163803 226.039368 C 253.747498 227.41626 255.274689 228.864441 256.930603 230.150467 C 258.843872 231.636383 260.882538 232.963654 262.843628 234.390503 C 263.908722 235.165436 264.962372 235.963425 265.935455 236.846252 C 266.14566 237.036957 266.163879 237.755646 265.970215 238.02829 C 264.90448 239.528381 263.73175 240.955475 262.622131 242.426819 C 261.426208 244.012695 260.249237 245.612762 259.082428 247.219421 C 257.703644 249.11795 256.32547 251.017578 254.985794 252.942261 C 254.386047 253.803955 253.224487 254.063049 252.458054 253.403488 C 251.099213 252.23407 249.758392 251.04361 248.391937 249.883179 C 247.911179 249.474945 247.856964 249.077728 248.32132 248.51416 C 250.255447 246.166901 252.156006 243.792206 254.100342 241.453415 C 255.274033 240.041565 255.276627 239.351349 254.004333 238.301422 C 252.961975 237.441254 251.918167 236.58255 250.892105 235.703278 C 250.217941 235.12558 249.600739 235.18338 248.974564 235.971573 C 247.551514 237.762833 246.122818 239.549683 244.691666 241.334564 C 243.987885 242.212296 243.316162 243.12381 242.539169 243.930389 C 242.292114 244.186829 241.572876 244.375519 241.374878 244.218109 C 239.921967 243.06311 238.551758 241.806351 237.144516 240.594421 C 236.482071 240.023926 236.395615 239.448639 237.140259 238.697601 C 238.303619 237.524292 239.484421 236.357101 240.545105 235.093536 C 241.714371 233.700623 242.805084 232.232269 243.813797 230.724106 C 244.022369 230.412216 243.90097 229.567108 243.622391 229.331604 C 242.102631 228.046753 240.477478 226.886505 238.907547 225.659637 C 238.322083 225.202148 237.966965 225.577972 237.591232 226.06073 C 236.328354 227.683304 235.068512 229.308319 233.791489 230.920013 C 232.926468 232.011688 232.037643 233.085052 231.153412 234.161713 C 230.585403 234.853333 230.094177 235.051361 229.398193 234.387863 C 228.151596 233.199493 226.78595 232.138046 225.465652 231.028778 C 224.841507 230.504333 224.619263 230.033234 225.373459 229.183441 C 227.418579 226.87915 229.386292 224.504822 231.356567 222.135132 C 233.232773 219.878571 235.054047 217.576721 236.937836 215.326584 C 237.891113 214.187897 238.315903 214.169281 239.31308 215.032715 C 240.976547 216.473038 242.634781 217.919327 244.295166 219.363068 C 244.322495 219.331665 244.349808 219.300232 244.377106 219.268799 Z"/>
        <path id="path10" fill="#ffffff" stroke="none" d="M 77.135574 214.841644 C 76.510742 213.644348 75.936951 212.490814 75.31472 211.364014 C 74.097466 209.159714 72.854515 206.969604 71.619423 204.775162 C 71.057014 203.775909 70.406197 202.814835 69.963776 201.765488 C 69.795753 201.366943 69.925781 200.495651 70.219063 200.30835 C 71.669495 199.38205 73.173859 198.506531 74.749306 197.819946 C 76.113373 197.225464 77.276512 197.755585 77.739075 199.170761 C 78.477165 201.428986 79.566414 203.468063 80.822716 205.475266 C 81.688683 206.858795 82.08226 208.528809 82.832031 209.996674 C 83.79879 211.889374 84.919044 213.703217 85.95665 215.560287 C 86.63073 216.766693 86.855438 217.14325 87.458046 218.385529 C 87.85173 219.197083 87.433769 220.224731 86.624924 220.59079 C 85.088203 221.28624 83.494949 221.867111 81.996887 222.635406 C 79.023911 224.160095 76.105194 225.790253 73.152893 227.355774 C 71.624382 228.166306 70.049728 228.891373 68.535179 229.726273 C 65.640579 231.321945 62.774803 232.969879 59.895649 234.593597 C 57.959991 235.685226 56.031349 236.789948 54.077881 237.848801 C 53.623096 238.095322 53.084553 238.278198 52.576153 238.300629 C 52.271717 238.314087 51.788101 238.033096 51.664127 237.758423 C 50.879936 236.021057 50.346054 235.395935 49.47818 233.524124 C 49.102306 232.713455 48.590603 231.890533 48.238678 231.027634 C 47.910069 230.221924 48.092312 229.611328 48.997845 229.2202 C 51.185539 228.275299 53.365719 227.305618 55.500908 226.248871 C 57.183025 225.416351 58.774677 224.402893 60.440205 223.5345 C 62.997742 222.200989 65.603767 220.959946 68.152863 219.610947 C 70.666573 218.280685 73.13179 216.858978 75.626617 215.492615 C 76.048363 215.261658 76.512222 215.107574 77.135574 214.841644 Z"/>
        <g id="Group">
            <path id="path11" fill="#ffffff" stroke="none" d="M 236.128143 102.533783 C 238.430969 102.087418 240.738327 101.662827 243.035614 101.189514 C 246.444107 100.487274 249.858688 99.806702 253.245819 99.011093 C 256.057861 98.350571 258.823303 97.493546 261.62912 96.803726 C 264.645264 96.06221 267.70285 95.48465 270.706146 94.697418 C 272.347443 94.267197 273.379852 94.871872 274.006592 96.242874 L 276.255493 99.542587 C 277.477509 101.296417 277.283539 102.142502 275.830658 103.64415 C 274.465179 105.055481 273.278809 106.640274 272.015747 108.150513 L 265.883789 115.06546 C 264.438782 116.671356 263.006622 118.291672 261.635071 119.960068 C 260.002258 121.946213 258.470825 124.015732 256.838928 126.00264 C 255.285034 127.894592 253.693985 129.758942 252.05188 131.574448 C 250.843216 132.910706 249.95047 132.664352 248.75032 131.325439 C 247.363922 129.778748 247.66629 129.465179 246.65892 127.746063 C 246.12825 126.840439 245.517197 125.959 245.156937 124.987106 C 245.001953 124.568954 245.292618 123.890839 245.560059 123.436371 C 245.849808 122.944046 246.349411 122.575668 246.755783 122.151627 C 248.055115 120.795914 248.065948 120.788986 247.147827 119.249496 C 245.78447 116.963562 244.425003 114.674728 243.022354 112.412903 C 242.089737 110.908997 241.591919 110.724365 240.188797 111.495621 C 239.416275 111.920242 238.427017 111.98735 237.521454 112.119614 C 236.95488 112.202347 236.590042 111.970169 236.314331 111.311722 C 235.784805 110.04718 235.057312 108.859116 234.347427 107.678146 C 233.431259 106.154068 233.288391 106.311615 232.374939 104.786011 C 232.043777 104.232956 232.187775 103.697464 232.866745 103.458344 L 236.128143 102.533783 Z M 262.515656 105.764908 C 262.429413 105.651917 262.343201 105.538925 262.256958 105.425934 C 261.259949 105.615265 260.248444 105.7491 259.268738 106.004852 C 256.806458 106.647659 254.363327 107.363754 251.902527 108.012543 C 250.885742 108.280609 250.639587 108.756409 251.159698 109.630905 C 251.325836 109.910278 251.410583 110.240097 251.588318 110.510178 C 252.361313 111.685059 253.138641 112.858185 253.963043 113.99675 C 254.058121 114.128036 254.5168 114.141205 254.702454 114.031815 C 255.102524 113.796097 255.467087 113.475769 255.789063 113.135925 C 257.468018 111.363892 259.137238 109.582397 260.791962 107.787704 C 261.392029 107.136948 261.942566 106.440491 262.515656 105.764908 Z"/>
            <path id="path12" fill="#ffffff" stroke="none" d="M 287.675201 93.636017 C 287.744659 92.742569 287.532562 91.895798 287.081146 91.133881 C 286.866608 90.77182 286.625122 90.411285 286.229218 90.164566 C 285.784332 89.887085 285.493713 89.391754 284.954498 89.223267 C 284.580292 89.106323 284.220978 88.939438 283.84436 88.83342 C 283.399475 88.708252 282.945099 88.643463 282.474121 88.687622 C 282.047333 88.727463 281.610535 88.678207 281.187531 88.736572 C 280.844727 88.783722 280.501221 88.89978 280.184967 89.044815 C 279.82373 89.210312 279.43457 89.350235 279.183594 89.698288 C 278.916443 90.068604 278.63855 90.431198 278.362213 90.801208 C 277.82254 91.353317 277.695129 92.099533 277.50766 92.801788 C 277.377167 93.290894 277.378998 93.820023 277.357697 94.332687 C 277.325378 95.106781 277.635864 95.800369 278.017426 96.434937 C 278.266998 96.849808 278.634613 97.224121 279.024445 97.516541 C 279.513702 97.883224 280.05188 98.218857 280.61853 98.44043 C 281.609497 98.828003 282.652283 98.93367 283.713684 98.720718 C 284.631012 98.536697 285.426483 98.136795 286.00943 97.395187 C 286.325623 96.992859 286.618927 96.562134 286.853455 96.108459 C 287.109497 95.61235 287.304382 95.081696 287.489441 94.553207 C 287.591888 94.261185 287.651245 93.945389 287.675201 93.636017 Z"/>
        </g>
        <g id="g1">
            <path id="path13" fill="#ffffff" stroke="none" d="M 41.313 195.671417 C 41.138496 196.220856 41.147198 196.782349 41.318256 197.325806 C 41.399525 197.58403 41.497936 197.845261 41.709743 198.057861 C 41.947735 198.296906 42.057144 198.64975 42.370201 198.834351 C 42.587448 198.962463 42.78804 199.11969 43.008385 199.241302 C 43.268692 199.384949 43.543816 199.492142 43.845291 199.533539 C 44.118465 199.571136 44.384853 199.666046 44.658371 199.691513 C 44.879997 199.712234 45.112194 199.689911 45.331539 199.645432 C 45.582054 199.594727 45.846363 199.564148 46.054588 199.382935 C 46.276203 199.190125 46.503441 199.003754 46.730789 198.812531 C 47.149769 198.545807 47.338997 198.097092 47.55938 197.684692 C 47.712822 197.397461 47.789253 197.06575 47.877762 196.747772 C 48.011494 196.267639 47.918709 195.787643 47.772739 195.334259 C 47.677242 195.037796 47.501869 194.74942 47.300549 194.509094 C 47.047871 194.207703 46.759972 193.918549 46.437534 193.696686 C 45.873638 193.30864 45.235954 193.089539 44.53989 193.067307 C 43.93832 193.048096 43.381413 193.181915 42.907543 193.561005 C 42.650513 193.766632 42.403618 193.993439 42.190231 194.24321 C 41.957108 194.516434 41.757221 194.820251 41.56382 195.124146 C 41.456833 195.292023 41.373367 195.48114 41.313 195.671417 Z"/>
            <path id="path14" fill="#ffffff" stroke="none" d="M 57.893009 190.176712 C 57.718513 190.726166 57.727211 191.287659 57.89827 191.8311 C 57.979534 192.08934 58.077942 192.350555 58.289753 192.563141 C 58.527744 192.802185 58.637157 193.155029 58.950207 193.339661 C 59.167458 193.467773 59.368057 193.625 59.588394 193.746613 C 59.848701 193.890259 60.123825 193.997452 60.425304 194.038849 C 60.698475 194.076447 60.964859 194.171356 61.238384 194.196808 C 61.460011 194.217545 61.692204 194.195206 61.911552 194.150726 C 62.162064 194.100037 62.426376 194.069458 62.634602 193.888245 C 62.85622 193.69545 63.083447 193.509064 63.310799 193.31781 C 63.729778 193.051117 63.919006 192.602386 64.139389 192.190002 C 64.292831 191.902756 64.36927 191.57106 64.457771 191.253082 C 64.591499 190.772934 64.498718 190.292953 64.352753 189.839554 C 64.257256 189.54306 64.081886 189.25473 63.880562 189.014404 C 63.627884 188.713013 63.339981 188.423859 63.017544 188.201996 C 62.453648 187.813919 61.815964 187.594849 61.119904 187.572617 C 60.51833 187.553406 59.961426 187.687225 59.487556 188.066299 C 59.230522 188.271942 58.983627 188.498718 58.770241 188.748535 C 58.537117 189.021729 58.337231 189.325562 58.143829 189.629425 C 58.036846 189.797333 57.953384 189.986465 57.893009 190.176712 Z"/>
        </g>
    </g>
</svg>
