<?xml version="1.0" encoding="UTF-8"?>
<!-- Generated by Pixelmator Pro 3.6.4 -->
<svg width="3779" height="3466" viewBox="0 0 3779 3466" xmlns="http://www.w3.org/2000/svg">
    <g id="Layer-1">
        <path id="Path" fill="#000000" stroke="none" d="M 2563.328613 1678.8479 C 2544.040527 1672.013184 2526.154541 1672.410156 2508.442383 1683.82019 C 2496.997314 1691.192993 2484.478027 1696.898071 2467.634521 1705.926147 C 2456.573975 1659.538452 2446.033691 1619.293335 2437.591797 1578.612427 C 2431.393555 1548.743286 2416.069824 1526.143799 2392.239258 1507.885864 C 2376.542725 1495.859619 2359.375 1492.092529 2341.542969 1498.46582 C 2300.616455 1513.092896 2261.487061 1532.016357 2236.000244 1568.956909 C 2227.042236 1581.941406 2218.510498 1600.526367 2220.637939 1614.953003 C 2231.005859 1685.257568 2223.747559 1759.142212 2262.35498 1822.922607 C 2257.977051 1827.390381 2255.937256 1830.661621 2252.989502 1832.305786 C 2184.133301 1870.709839 2115.020508 1908.243652 2049.475586 1952.740845 C 1998.429077 1987.395386 1941.529907 2013.594727 1886.557007 2042.257324 C 1874.65918 2048.460938 1862.723022 2054.591064 1850.794189 2060.735352 C 1835.179688 2006.549927 1815.096069 1954.088013 1783.481079 1905.773804 C 1766.714478 1880.151489 1755.818481 1764.126953 1764.24353 1730.207397 C 1778.518677 1672.734253 1809.698242 1624.760864 1850.858765 1583.477661 C 1886.816895 1547.40918 1917.050659 1508.104126 1940.950806 1462.774292 C 1980.522705 1387.718018 1962.491333 1319.740234 1921.104736 1253.505859 C 1909.886719 1235.551514 1892.751587 1227.391602 1870.657593 1226.516113 C 1841.045654 1225.341797 1813.813232 1230.907471 1792.197144 1251.12085 C 1761.444336 1279.879639 1729.487305 1308.172852 1703.472656 1340.969727 C 1671.411133 1381.387451 1653.521729 1431.682251 1656.059814 1482.174072 C 1660.993652 1580.349365 1663.212646 1679.696045 1697.277588 1774.101196 C 1698.616577 1777.816162 1697.838623 1782.297607 1698.398315 1793.353638 C 1653.28064 1738.234619 1616.610718 1685.957764 1586.547363 1628.900513 C 1529.032593 1519.740967 1455.553955 1423.385742 1358.526367 1345.819336 C 1333.350098 1325.691895 1305.724854 1316.392578 1274.003662 1316.388184 C 1258.427734 1316.384766 1247.295898 1322.607666 1238.665039 1335.391113 C 1219.919067 1363.157471 1223.082275 1392.102539 1237.769287 1418.847534 C 1251.801758 1444.40625 1267.351074 1470.569214 1287.762695 1490.923462 C 1351.751709 1554.728882 1416.939575 1617.901001 1500.203979 1657.177124 C 1572.776489 1691.40918 1624.776001 1747.864624 1670.449585 1811.484619 C 1684.134399 1830.545166 1698.272949 1849.370239 1710.619141 1869.284424 C 1735.245972 1909.002808 1763.869263 1947.273438 1781.693237 1989.962402 C 1793.915527 2019.239502 1805.4021 2048.752441 1816.026367 2078.574219 C 1768.250732 2102.955566 1720.323975 2127.045898 1672.437256 2151.208984 C 1656.312622 2159.345215 1650.239014 2161.645996 1627.366943 2178.569824 C 1612.40918 2187.328613 1586.95752 2204.108398 1575.968384 2211.155762 C 1503.457886 2257.659668 1456.734009 2303.368164 1382.470459 2346.912842 C 1339.369995 2372.185059 1304.273682 2405.879883 1267.850708 2438.523438 C 1258.369507 2447.020508 1250.854004 2458.936768 1245.686035 2470.708984 C 1239.24353 2485.383789 1250.635742 2497.955078 1266.110718 2493.434082 C 1277.330811 2490.15625 1287.464966 2483.009277 1297.919678 2477.289063 C 1352.466064 2447.443359 1406.998169 2417.571289 1461.460083 2387.571777 C 1503.314941 2364.515869 1545.496094 2342.00293 1586.686157 2317.808594 C 1611.379272 2303.303955 1633.371216 2284.050781 1658.470947 2270.418213 C 1708.905029 2243.025146 1760.68396 2218.11377 1811.81189 2191.991211 C 1823.404419 2186.068115 1834.957886 2180.067871 1846.506714 2174.058594 C 1854.505371 2202.600586 1861.579102 2231.499512 1867.590088 2260.827637 C 1888.608765 2363.364258 1905.199219 2466.42627 1917.480225 2569.977783 C 1923.487061 2620.630371 1937.357544 2668.513672 1948.459351 2717.477051 C 1952.107788 2733.566162 1961.840576 2741.493408 1983.141602 2734.310547 C 1982.666748 2714.97583 1984.286255 2695.075684 1981.342041 2675.873535 C 1968.893188 2594.701172 1956.717407 2513.424561 1941.265137 2432.794922 C 1928.69519 2367.215332 1911.927856 2302.425781 1896.389038 2237.435791 C 1890.08606 2211.074219 1882.675415 2184.976563 1875.846069 2158.741455 C 1882.087769 2155.470459 1888.333374 2152.20752 1894.573975 2148.934814 C 1951.782715 2118.933105 2009.009521 2088.965332 2066.118164 2058.774902 C 2140.133057 2019.646851 2213.55957 1979.366943 2288.211426 1941.499023 C 2321.967041 1924.376099 2322.293945 1927.07605 2339.940918 1959.358643 C 2372.071533 2018.136475 2404.210449 2076.98877 2439.048096 2134.163086 C 2450.39502 2152.784912 2468.348633 2168.922363 2486.56665 2181.396973 C 2506.088867 2194.765137 2526.823486 2187.767578 2538.746094 2167.727051 C 2551.148438 2146.880859 2559.766846 2124.492676 2555.735107 2099.386719 C 2552.129639 2076.938232 2548.030518 2054.570313 2544.268311 2032.146362 C 2531.998779 1959.016602 2519.782959 1885.87793 2507.546387 1812.742554 C 2541.658936 1799.47522 2571.344482 1780.766968 2589.50708 1747.325806 C 2604.802979 1719.162354 2593.38208 1689.496704 2563.328613 1678.8479 Z"/>
        <path id="path1" fill="#000000" stroke="none" d="M 498.757416 1959.782227 C 468.340424 1944.645752 438.06369 1929.219116 407.47345 1914.441162 C 362.087158 1892.515381 316.82135 1870.286987 270.858795 1849.623047 C 232.699738 1832.467041 193.347137 1817.9823 155.002335 1801.218262 C 113.782944 1783.197998 73.530136 1762.92688 32.056076 1745.545166 C 9.390847 1736.046509 2.838421 1720.003662 7.697805 1698.717407 L 10.876052 1640.967285 C 12.258323 1610.037842 21.937069 1602.013672 51.866356 1597.530396 C 79.995567 1593.316406 107.591568 1585.530884 135.4133 1579.277832 L 266.812775 1553.717529 C 297.569305 1547.965942 328.304871 1541.935059 358.767151 1534.818237 C 395.030853 1526.345947 430.862427 1516.022827 467.122528 1507.533691 C 501.649414 1499.450195 536.361023 1492.01123 571.229736 1485.583618 C 596.894226 1480.853027 604.994141 1491.544922 607.012695 1517.509766 C 609.344482 1547.50354 603.106628 1548.44873 599.560913 1577.089722 C 597.693054 1592.17749 596.96283 1607.69458 592.551208 1622.0448 C 590.653137 1628.21875 581.34082 1633.459717 574.26416 1636.332886 C 566.598083 1639.445313 557.608887 1639.284912 549.201904 1640.585083 C 522.323364 1644.741455 522.13739 1644.725708 519.146851 1670.514893 C 514.70636 1708.809204 510.195801 1747.102173 506.419495 1785.464844 C 503.9086 1810.972412 508.009338 1817.478149 530.937378 1820.95813 C 543.561035 1822.873901 555.529907 1830.810059 567.109985 1837.259888 C 574.355408 1841.295532 576.507874 1847.17749 573.883362 1857.177979 C 568.842773 1876.384155 566.752747 1896.453247 564.522705 1916.285767 C 561.644775 1941.880371 564.674866 1941.325684 561.752563 1966.914185 C 560.693176 1976.190552 554.323242 1981.082275 544.408691 1977.856079 L 498.757416 1959.782227 Z M 223.685608 1690.341919 C 223.682983 1692.400513 223.680237 1694.459351 223.677536 1696.517944 C 236.811951 1703.116455 249.624512 1710.480835 263.144165 1716.162964 C 297.124237 1730.443604 331.528778 1743.712524 365.544373 1757.911011 C 379.599121 1763.777954 386.618927 1760.472168 388.334198 1745.835083 C 388.882263 1741.15918 390.810791 1736.619507 391.144104 1731.948853 C 392.594727 1711.630615 393.980347 1691.2948 394.519806 1670.942505 C 394.581909 1668.594849 389.421967 1664.406372 386.323547 1664.030029 C 379.647186 1663.219727 372.634125 1663.695068 365.93927 1664.769775 C 331.029297 1670.373291 296.148102 1676.171143 261.317261 1682.247925 C 248.687241 1684.451294 236.224594 1687.615967 223.685608 1690.341919 Z"/>
        <path id="path2" fill="#000000" stroke="none" d="M 450.9711 654.222656 C 468.276611 637.87085 485.395935 621.314453 502.995422 605.285645 M 928.96283 668.100342 C 928.96283 668.100342 957.444031 672.211914 997.099915 711.451904 C 1035.189453 749.402344 1037.704468 780.833252 1037.088501 833.677002 C 1037.057495 836.330078 1037.415161 839.215576 1036.525513 841.594238 C 1030.670776 857.246826 1024.420532 872.751465 1018.501648 888.380615 C 1013.270203 902.194824 1002.030212 916.008545 995.486816 925.274414 C 988.943359 934.540527 980.249268 947.574707 970.94281 957.151123 C 948.912048 979.820313 925.825867 1001.4729 902.942688 1023.302002 C 874.7229 1050.222656 846.300598 1076.930908 817.918518 1103.680908 C 799.805298 1120.75293 790.73053 1116.552734 776.659424 1100.430664 C 768.546509 1091.135498 761.23822 1086.0979 754.165588 1078.287842 C 736.796753 1059.108398 720.132385 1039.291504 702.805176 1020.073242 C 689.366394 1005.167725 674.963684 991.123535 661.679626 976.086914 C 635.720337 946.702637 610.419434 916.736084 584.414917 887.392578 C 579.348694 881.675781 437.106689 729.392822 427.410065 716.444092 C 418.951721 705.14917 416.58667 694.090088 424.918121 682.802734 C 424.918121 682.802734 451.467194 652.262695 492.549194 614.809082 C 533.631226 577.355225 571.683655 546.138184 583.815125 538.916748 C 606.089111 525.657227 626.595154 510.462891 654.717712 507.268311 C 677.18689 504.716309 699.128174 498.638184 721.868469 503.067871 C 731.306274 504.90625 741.902649 506.140381 749.45813 511.317627 C 774.570618 528.524658 805.3479 540.724609 817.739929 571.222168 C 827.520386 595.292236 831.657654 619.570557 838.754089 644.688965 C 839.488037 647.287109 838.631836 652.116455 838.20343 655.198975 C 837.536987 659.993408 835.525452 668.081543 837.272705 669.05542 C 841.854431 671.608887 848.430542 672.459473 853.711426 671.427246 C 853.711426 671.427246 891.483704 656.787354 928.96283 668.100342 Z M 723.422058 847.103271 C 724.421448 849.409912 724.71405 851.151855 725.715881 852.241455 C 752.974487 881.883789 779.903198 911.847168 807.820007 940.858643 C 819.213867 952.699463 832.927063 949.042725 842.481567 935.132813 C 850.806396 923.012939 859.016052 909.979492 870.117249 900.775879 C 892.524597 882.198975 899.47406 857.50293 901.624023 830.875244 C 902.276611 822.792725 898.333252 812.876709 893.381592 806.063232 C 873.358215 778.511719 829.882385 770.662842 799.734192 790.448486 C 773.61084 807.592529 749.397461 827.647461 723.422058 847.103271 Z M 616.931885 663.743896 C 609.109009 669.603271 603.524109 673.69751 598.034485 677.915771 C 584.576904 688.256348 584.736816 698.805908 596.230713 711.344238 C 613.775452 730.483398 630.551208 750.354492 647.067993 770.397461 C 655.929932 781.151123 669.381165 782.184814 677.933228 771.689697 C 683.251648 765.162354 689.207458 759.117188 694.140625 752.321045 C 706.428589 735.394043 722.230652 720.000488 721.492188 696.737549 C 720.539551 666.73999 709.525879 647.705078 683.558105 647.014893 C 659.367188 646.371582 633.062378 642.538574 616.931885 663.743896 Z"/>
        <path id="path3" fill="#000000" stroke="none" d="M 2752.390625 636.882324 C 2743.464355 632.63501 2734.180176 628.999268 2725.685791 624.016357 C 2706.6604 612.855469 2687.8125 601.356689 2669.308838 589.354248 C 2656.071533 580.768066 2653.681396 564.72583 2662.928467 551.583984 C 2668.12207 544.202393 2673.692871 537.085693 2679.095215 529.851074 C 2691.834473 512.790039 2706.768311 511.287109 2724.243164 522.95459 C 2743.083008 535.533447 2763.03418 546.449463 2782.524658 558.049561 C 2816.509766 578.275879 2850.514648 598.46875 2884.503418 618.688965 C 2884.953369 618.956299 2885.256836 619.4646 2885.703613 619.741699 C 2892.342773 623.862793 2904.723389 628.277344 2904.52002 632.007813 C 2904.007568 641.39624 2898.716797 650.997314 2893.719727 659.567871 C 2882.797363 678.301025 2873.207764 698.630371 2858.673584 714.20166 C 2844.931641 728.92334 2826.780518 740.999756 2808.394775 749.588135 C 2777.950195 763.809082 2746.502197 777.228271 2714.069824 785.420166 C 2688.59082 791.855469 2645.818604 790.987793 2619.650879 783.461426 C 2593.48291 775.935303 2542.885742 752.703125 2510.146973 724.116943 C 2477.408203 695.530762 2458.369385 673.574951 2430.312988 634.951416 C 2423.312012 625.313477 2419.501953 612.247559 2415.124512 600.384766 C 2408.150391 581.484863 2401.084961 562.554688 2395.557861 543.209473 C 2392.130859 531.215088 2390.293457 518.471436 2389.848877 505.989746 C 2389.169678 486.922363 2388.38623 467.514404 2391.074707 448.742676 C 2396.987061 407.466553 2417.717529 372.423584 2439.724121 337.595459 C 2464.8479 297.834229 2500.811768 270.507568 2539.524658 247.047119 C 2556.803955 236.575439 2579.036377 233.466064 2599.481201 229.240723 C 2621.794678 224.62915 2644.582764 220.775879 2667.274902 220.055176 C 2683.263428 219.546875 2703.758789 220.324951 2714.752197 221.58374 C 2725.745605 222.842773 2764.904053 232.198486 2789.184814 243.433105 C 2813.46582 254.667969 2830.096436 265.490234 2842.890137 276.187744 C 2858.462891 289.208496 2872.176758 304.470215 2886.511719 318.943604 C 2892.762207 325.254639 2898.965332 331.690674 2904.491455 338.626709 C 2934.702148 376.546631 2947.246094 422.211914 2957.01123 468.054688 C 2961.750732 490.304932 2958.392334 514.468506 2957.265625 537.695801 C 2956.720947 548.917236 2947.805176 554.839111 2937.038818 553.157715 C 2918.871338 550.319824 2900.882324 546.129639 2882.991455 541.791992 C 2868.165527 538.198242 2853.386963 534.133545 2839.052979 528.981934 C 2835.746338 527.793457 2831.863281 520.915283 2832.443359 517.336426 C 2838.067139 482.643066 2825.864502 453.375244 2808.981445 423.939697 C 2792.135742 394.568848 2764.447266 378.310791 2737.862549 362.332031 C 2719.715332 351.425049 2695.667236 348.187012 2673.833008 346.202148 C 2654.309326 344.427734 2631.557129 343.742188 2614.92041 352.009521 C 2582.698975 368.020752 2554.078613 390.006836 2536.419189 424.404053 C 2519.959961 456.463623 2511.153809 489.549805 2511.088379 525.029785 C 2511.070313 534.77832 2515.15625 544.627197 2517.909424 554.272461 C 2526.974854 586.028076 2545.186523 611.125488 2567.9375 635.448975 C 2585.798584 654.545166 2606.141357 658.306885 2628.251953 664.932861 C 2666.503662 676.395264 2699.449463 661.445313 2733.388184 649.220703 C 2739.691895 646.949951 2745.778809 644.07666 2751.965576 641.481445 C 2752.107178 639.948486 2752.248535 638.415283 2752.390625 636.882324 Z"/>
        <path id="path4" fill="#000000" stroke="none" d="M 3688.760254 1343.301758 C 3696.540527 1366.255859 3699.931641 1377.797363 3707.2854 1400.923828 C 3716.45459 1429.759277 3721.353516 1444.885254 3730.503418 1473.725952 C 3735.90625 1490.755127 3738.743408 1508.669922 3741.853027 1526.341431 C 3748.134033 1562.035522 3747.551514 1598.171021 3742.383789 1633.663696 C 3737.750977 1665.483154 3713.375 1685.29248 3690.251953 1705.079468 C 3657.369385 1733.216797 3617.679932 1747.741211 3576.329346 1747.724487 C 3521.481445 1747.702148 3470.690674 1731.663818 3438.24292 1680.920654 C 3431.001221 1669.596191 3421.083008 1659.984375 3409.764404 1646.432251 C 3394.811523 1669.098999 3380.785645 1690.73999 3366.361328 1712.111328 C 3354.180176 1730.157837 3341.471924 1747.847046 3329.120117 1765.779419 C 3320.720215 1777.973999 3312.912598 1790.596924 3304.101318 1802.480103 C 3299.124512 1809.191162 3293.480225 1816.016357 3286.671387 1820.624634 C 3274.911621 1828.58374 3266.973145 1825.639648 3262.087402 1812.175293 C 3251.486572 1782.959229 3240.797852 1753.743774 3231.428711 1724.122192 C 3224.361084 1701.776245 3225.581055 1681.111694 3244.102539 1662.475708 C 3260.876221 1645.598511 3273.782715 1624.94397 3289.851074 1607.280762 C 3310.781494 1584.27356 3333.237061 1562.658691 3354.795654 1540.213257 C 3357.761719 1537.125244 3359.346924 1532.710327 3361.571777 1528.909668 C 3357.263672 1527.63562 3352.904785 1525.190674 3348.659668 1525.374146 C 3342.940918 1525.621826 3337.075195 1527.292847 3331.679688 1529.396362 C 3302.070557 1540.942383 3272.616943 1552.886841 3243.033691 1564.49939 C 3236.641602 1567.008911 3230.055176 1569.271851 3223.356934 1570.70813 C 3173.450684 1583.270752 3183.729004 1578.637939 3167.12085 1542.285645 C 3161.158936 1529.236206 3155.311523 1516.13269 3149.192871 1503.157104 C 3139.063477 1481.675659 3145.276611 1469.778931 3167.980957 1462.67334 C 3184.527832 1457.495361 3200.064941 1449.175659 3216.35498 1443.063965 C 3229.06958 1438.293945 3242.290527 1434.888672 3255.214111 1430.656738 C 3274.895264 1424.211304 3294.571289 1417.742676 3314.146484 1410.984375 C 3349.076904 1398.924805 3462.532471 1375.282959 3497.096191 1362.239746 C 3497.096191 1362.239746 3664.553711 1283.817871 3688.760254 1343.301758 Z M 3554.99292 1459.539063 C 3522.366211 1468.447998 3492.211914 1476.36145 3462.358154 1485.280029 C 3459.006104 1486.281738 3454.608154 1493.621582 3455.383545 1496.919556 C 3458.972168 1512.186157 3461.822754 1528.417358 3469.379883 1541.791748 C 3484.017334 1567.69751 3491.392334 1597.927856 3518.858154 1616.563843 C 3542.02124 1632.28125 3565.048828 1632.928101 3587.924316 1622.53479 C 3611.017822 1612.042847 3622.701416 1582.047241 3618.510498 1554.667725 C 3616.17627 1539.418213 3614.529053 1523.901855 3610.339355 1509.139648 C 3605.178467 1490.956421 3599.5979 1471.301147 3582.998535 1460.6604 C 3575.686523 1455.973389 3563.023438 1459.638916 3554.99292 1459.539063 Z"/>
        <path id="path5" fill="#000000" stroke="none" d="M 2744.508057 3109.459961 C 2737.032227 3090.85791 2731.64209 3075.836914 2725.04834 3061.374268 C 2711.423828 3031.490234 2697.409912 3001.778564 2683.073975 2972.236084 C 2672.230957 2949.892578 2660.377441 2928.053467 2649.486572 2905.733398 C 2643.398682 2893.257568 2638.684326 2880.099365 2632.751221 2867.53833 C 2626.610107 2854.536133 2620.060303 2841.701416 2613.101074 2829.133057 C 2606.611084 2817.410645 2604.067627 2807.79248 2618.276367 2801.085449 C 2629.480957 2795.79541 2640.001465 2789.025879 2650.820068 2782.902832 C 2665.681641 2774.491943 2680.81665 2766.543701 2695.324951 2757.534424 C 2713.297852 2746.374023 2718.164795 2747.000488 2726.38208 2767.174316 C 2740.701904 2802.328369 2753.270996 2838.205566 2767.92334 2873.211914 C 2780.979492 2904.404053 2795.921143 2934.800293 2809.909912 2965.603516 C 2815.68457 2978.319336 2820.906738 2991.294434 2826.790527 3003.956787 C 2846.971191 3047.387695 2867.246582 3090.774414 2887.658447 3134.094727 C 2900.44043 3161.220947 2913.756836 3188.091064 2926.404053 3215.280029 C 2934.361816 3232.387695 2930.078613 3239.874756 2913.984131 3246.72998 C 2893.692627 3255.372803 2873.792725 3265.233887 2854.697021 3276.319824 C 2839.916992 3284.898926 2828.72583 3284.860352 2813.733154 3274.723389 C 2800.71582 3265.922607 2786.615967 3258.936279 2772.837646 3251.494385 C 2748.15332 3238.162354 2723.343262 3225.106201 2698.599121 3211.904785 C 2667.146973 3195.125 2635.57959 3178.593018 2604.294922 3161.448975 C 2562.966553 3138.801514 2521.899414 3115.587158 2480.599365 3092.878418 C 2477.156982 3090.985596 2472.797607 3091.078857 2468.864258 3090.249512 C 2468.813965 3094.774414 2467.280029 3099.966309 2468.943848 3103.720215 C 2485.196533 3140.393066 2502.143311 3176.752441 2518.563232 3213.351807 C 2529.975342 3238.78833 2540.056885 3264.866943 2552.224121 3289.914795 C 2564.792236 3315.787109 2578.415039 3341.224365 2593.006592 3365.964844 C 2602.96167 3382.843994 2600.16333 3399.179199 2582.630615 3408.463623 C 2567.175049 3416.647217 2551.489502 3424.384766 2535.831543 3432.16626 C 2530.713867 3434.708984 2525.430664 3436.942139 2520.10791 3439.023682 C 2492.48584 3449.826416 2490.728516 3448.351563 2477.749512 3418.723633 C 2453.608887 3363.615723 2428.512207 3308.932617 2404.091309 3253.94751 C 2398.208008 3240.701904 2394.225342 3226.566895 2387.973145 3213.526611 C 2360.79126 3156.834229 2332.713867 3100.579102 2305.797607 3043.760742 C 2296.753906 3024.67041 2289.859619 3004.492188 2282.788818 2984.531006 C 2281.510986 2980.923096 2282.674316 2974.069336 2285.216553 2971.899902 C 2313.756836 2947.530762 2345.56543 2928.972168 2382.214844 2920.677002 C 2388.770752 2919.192627 2397.579346 2921.691895 2403.926758 2925.307617 C 2438.13623 2944.793945 2471.839355 2965.328369 2505.831055 2985.273682 C 2535.552246 3002.712891 2565.018066 3020.762695 2595.339844 3036.869629 C 2627.478027 3053.94165 2660.525146 3068.961426 2693.107178 3085.044922 C 2704.125977 3090.484375 2714.867432 3096.601807 2725.873291 3102.075439 C 2730.808105 3104.529297 2736.082031 3106.160645 2744.508057 3109.459961 Z"/>
        <path id="path6" fill="#000000" stroke="none" d="M 3685.199707 2324.51709 C 3672.683105 2347.621338 3661.134521 2371.322266 3647.20752 2393.557129 C 3641.023926 2403.429688 3630.037842 2410.341064 3621.23291 2418.597656 C 3591.718994 2446.274658 3558.836914 2468.955322 3516.772705 2475.949707 C 3494.166504 2479.70874 3471.044922 2481.599609 3447.991699 2482.827637 C 3437.63501 2483.379395 3426.894287 2479.75 3416.296387 2478.862305 C 3367.505615 2474.775391 3325.737793 2451.868652 3287.508057 2424.023438 C 3263.142578 2406.2771 3238.421387 2386.734131 3227.294922 2356.15332 C 3221.572266 2340.425781 3208.01001 2327.039063 3202.197754 2311.321777 C 3188.757324 2274.976074 3172.863525 2238.972656 3181.262939 2199.041016 C 3185.877441 2177.104004 3183.123535 2153.460938 3186.383789 2131.083008 C 3189.677734 2108.473633 3196.169678 2086.442871 3201.490967 2064.220215 C 3207.918945 2037.373291 3214.892822 2010.670898 3221.076172 1983.760864 C 3228.519043 1951.370972 3242.306641 1945.99231 3274.345947 1959.894775 C 3291.347656 1967.272461 3310.295166 1970.005249 3328.341064 1974.928833 C 3341.095215 1978.408691 3353.865234 1981.849487 3366.528076 1985.671997 C 3378.210449 1989.19873 3389.575195 1994.20105 3401.402832 1996.818115 C 3431.683594 2003.518555 3462.269775 2008.612671 3492.493652 2015.575073 C 3517.511719 2021.337769 3542.120117 2029.149292 3567.027832 2035.526611 C 3618.274414 2048.647705 3669.638428 2061.24707 3720.860107 2074.477051 C 3730.70166 2077.018555 3740.394043 2080.881104 3749.556152 2085.372314 C 3752.447021 2086.788818 3755.578125 2092.833984 3754.875488 2095.750488 C 3748.782715 2121.035156 3741.570801 2146.01416 3735.262207 2171.24292 C 3731.977539 2184.37915 3730.005615 2197.876953 3727.14502 2211.137695 C 3722.864746 2230.98291 3719.101563 2251.00415 3713.592529 2270.478516 C 3710.442383 2281.615234 3704.480713 2291.919434 3699.390625 2302.404785 C 3695.578125 2310.258789 3691.136475 2317.802002 3686.974854 2325.483887 C 3686.383301 2325.161621 3685.791504 2324.839111 3685.199707 2324.51709 Z M 3395.331055 2368.005859 C 3413.354736 2370.339844 3440.003174 2377.698242 3465.534424 2375.994141 C 3490.94751 2374.29834 3519.728027 2373.818604 3537.497803 2350.797363 C 3538.279297 2349.785156 3540.480957 2349.922119 3541.538818 2349.007324 C 3555.333252 2337.074463 3571.338379 2326.745117 3582.171631 2312.604004 C 3594.905762 2295.981201 3604.726563 2276.723145 3612.900391 2257.342285 C 3622.595703 2234.35376 3629.733398 2210.192383 3636.902832 2186.190918 C 3640.605225 2173.795654 3633.634521 2165.125977 3620.105225 2162.728271 C 3613.059082 2161.479492 3605.856934 2161.177734 3598.883545 2159.612793 C 3565.102783 2152.034668 3531.370117 2144.204346 3497.639648 2136.363281 C 3494.147461 2135.551025 3490.821533 2133.943604 3487.360352 2132.924072 C 3454.455322 2123.233154 3421.552246 2113.534424 3388.619141 2103.950195 C 3367.497803 2097.803711 3346.251709 2092.116699 3325.203857 2085.70874 C 3310.799316 2081.323242 3297.223633 2087.537598 3294.39917 2100.795898 C 3286.694336 2136.961426 3279.578613 2173.001465 3282.775635 2211.021973 C 3285.310547 2241.169678 3292.393799 2269.549805 3308.670654 2296.029297 C 3314.448242 2305.428711 3318.873291 2316.90625 3327.217773 2323.295898 C 3346.329834 2337.931396 3367.474609 2350.018066 3395.331055 2368.005859 Z"/>
        <path id="path7" fill="#000000" stroke="none" d="M 1033.354736 406.756348 C 1032.761108 380.164307 1032.513916 353.860352 1031.489014 327.58667 C 1030.525879 302.901611 1043.226318 282.746338 1053.740601 262.419922 C 1062.938477 244.638184 1074.40979 227.182617 1088.280029 212.881836 C 1105.398682 195.231934 1126.958252 181.968994 1144.908447 165.020996 C 1164.711304 146.32373 1187.616577 133.140137 1212.238647 123.04126 C 1233.090088 114.488281 1255.302734 109.310059 1276.424561 101.344238 C 1306.869141 89.862549 1337.620117 102.024902 1367.644043 98.827881 C 1394.354248 95.984131 1418.085571 103.764648 1440.662842 112.581543 C 1488.167236 131.132568 1527.819336 162.023682 1556.364624 205.010498 C 1566.249634 219.896973 1574.759399 236.327637 1580.477295 253.210693 C 1590.819946 283.748535 1600.812256 314.736572 1606.783447 346.324219 C 1612.245239 375.218018 1614.217285 405.157715 1614.141479 434.627197 C 1614.002441 488.939697 1592.105957 535.305908 1557.015259 576.193115 C 1516.419189 623.494629 1465.375977 655.692871 1406.677002 673.260498 C 1373.102539 683.308838 1336.789063 687.175049 1301.588867 687.885986 C 1273.536133 688.452393 1243.581177 684.517578 1217.54834 674.547363 C 1177.720703 659.294189 1139.032837 638.841309 1113.044312 602.58374 C 1095.828735 578.565674 1076.977905 554.634766 1065.547729 527.81543 C 1049.137939 489.312256 1028.449341 450.944336 1033.354736 406.756348 Z M 1330.457397 223.609863 C 1267.148193 227.370361 1219.920532 253.589111 1183.588745 299.849365 C 1166.382935 321.756592 1160.463135 347.345215 1156.105347 374.462402 C 1149.468628 415.76001 1153.984985 425.337402 1167.615723 462.194092 C 1175.685669 484.01416 1179.662964 489.114258 1189.695801 502.156494 C 1197.90625 519.500488 1215.865234 525.185303 1231.059082 535.196045 C 1257.553223 552.651367 1285.63208 562.82373 1318.799683 561.918945 C 1350.394165 561.056885 1381.207764 560.625977 1408.68689 543.3125 C 1421.182129 535.439941 1434.15564 526.917725 1443.548462 515.839355 C 1460.43689 495.92041 1479.487427 477.414795 1484.891235 449.276855 C 1490.452881 420.315918 1491.873413 424.894775 1495.594849 390.930908 C 1495.704224 389.931641 1495.459473 388.800293 1495.210693 387.774414 C 1482.99353 337.399902 1479.89502 315.839111 1442.550903 274.89917 C 1410.054199 239.273438 1370.862183 226.671631 1330.457397 223.609863 Z"/>
        <path id="path8" fill="#000000" stroke="none" d="M 2003.102661 20.806396 C 2075.449463 20.729004 2137.347412 56.744385 2160.187744 64.375244 C 2187.644043 78.831543 2208.140625 89.08667 2228.096924 100.302002 C 2244.006348 109.24292 2246.292725 125.138428 2234.427246 138.873291 C 2215.464355 160.823242 2193.041504 178.749023 2167.794434 192.752197 C 2162.572266 195.648682 2153.468994 195.621094 2147.954834 193.061768 C 2137.010742 187.983154 2126.659912 181.017578 2117.240234 173.380615 C 2092.424805 153.261963 2063.916504 147.210938 2033.715332 153.273926 C 1996.551025 160.734131 1979.056274 206.898682 2003.886108 233.287109 C 2014.962036 245.058105 2029.769653 250.119385 2047.356445 257.724609 C 2124.970459 290.347168 2195.382813 310.391357 2209.056396 363.945313 C 2222.72998 417.499023 2224.918213 446.383057 2211.333252 484.824707 C 2184.927979 522.039307 2158.168701 558.331055 2108.387695 571.391846 C 2073.49585 580.546387 2039.069824 584.137695 2003.804565 585.110352 C 1919.950684 585.266602 1862.700684 551.720459 1846.264771 541.535889 C 1833.367676 533.544678 1822.819824 521.854736 1810.426025 512.920898 C 1804.253784 508.47168 1767.483032 493.660645 1767.233032 482.141113 C 1767.089966 475.549316 1822.313721 422.104492 1826.225708 416.811279 C 1836.404297 403.037598 1848.009277 399.012451 1863.526367 406.755859 C 1886.830933 418.385742 1909.597778 431.088135 1932.786743 442.956787 C 1938.774536 446.02124 1989.689697 461.591309 2008.713989 462.543457 C 2029.988892 463.607422 2047.418213 450.569092 2059.079834 430.452148 C 2067.39624 416.10498 2061.161377 407.563721 2051.791016 398.683594 C 2028.349609 376.468506 1997.628296 370.678955 1968.700684 359.745605 C 1941.340454 349.404785 1915.18042 333.610352 1891.758179 315.896973 C 1875.100586 303.299316 1857.819458 288.906494 1849.780151 267.253418 C 1835.103271 227.72168 1819.680054 188.578613 1845.362549 147.642578 C 1860.855225 122.948486 1874.550049 96.92334 1892.083618 73.793945 C 1892.083618 73.793945 1954.990356 19.064941 2003.102661 20.806396 Z"/>
        <path id="path9" fill="#000000" stroke="none" d="M 3154.339355 2541.114502 C 3190.946533 2572.945068 3227.551758 2604.7771 3264.161133 2636.605225 C 3286.497559 2656.024414 3308.036377 2676.449463 3331.390869 2694.587402 C 3358.375488 2715.544434 3387.128418 2734.26416 3414.787354 2754.388184 C 3429.809082 2765.317383 3444.669678 2776.572021 3458.393799 2789.023193 C 3461.358398 2791.712891 3461.615479 2801.849121 3458.883789 2805.694336 C 3443.853027 2826.851318 3427.313477 2846.979004 3411.663574 2867.730469 C 3394.796143 2890.097412 3378.196777 2912.664063 3361.740234 2935.324219 C 3342.293945 2962.100586 3322.856445 2988.892822 3303.961914 3016.037842 C 3295.503418 3028.190918 3279.121094 3031.845215 3268.311523 3022.542969 C 3249.14624 3006.049805 3230.236084 2989.259766 3210.963623 2972.893311 C 3204.183105 2967.135498 3203.418457 2961.533447 3209.967773 2953.584961 C 3237.246094 2920.479736 3264.051514 2886.987305 3291.473877 2854.001709 C 3308.027344 2834.089355 3308.063721 2824.354736 3290.119629 2809.546875 C 3275.418457 2797.415039 3260.696777 2785.304199 3246.225586 2772.903076 C 3236.717041 2764.755127 3228.012451 2765.570313 3219.180908 2776.687012 C 3199.110596 2801.950439 3178.960449 2827.151855 3158.775879 2852.325684 C 3148.849854 2864.704834 3139.375977 2877.560547 3128.41748 2888.936279 C 3124.933105 2892.553223 3114.789063 2895.214355 3111.996582 2892.994385 C 3091.504883 2876.70459 3072.179932 2858.979492 3052.332275 2841.886475 C 3042.989502 2833.840576 3041.77002 2825.726563 3052.272217 2815.134277 C 3068.680176 2798.586182 3085.333984 2782.124512 3100.293701 2764.303223 C 3116.784668 2744.657959 3132.167725 2723.94873 3146.394531 2702.677734 C 3149.336182 2698.278809 3147.624023 2686.359863 3143.695068 2683.038086 C 3122.260498 2664.916992 3099.339844 2648.553223 3077.197754 2631.249512 C 3068.940674 2624.797119 3063.932129 2630.0979 3058.632813 2636.906494 C 3040.821533 2659.791016 3023.052979 2682.709961 3005.041992 2705.440674 C 2992.842041 2720.837402 2980.306152 2735.976074 2967.835205 2751.161133 C 2959.823975 2760.915527 2952.895996 2763.708496 2943.079834 2754.350586 C 2925.498291 2737.590088 2906.237305 2722.619629 2887.616211 2706.974609 C 2878.813232 2699.578125 2875.678711 2692.933838 2886.315918 2680.948486 C 2915.159668 2648.449219 2942.912109 2614.962402 2970.700439 2581.540527 C 2997.162109 2549.714844 3022.848877 2517.249756 3049.41748 2485.514404 C 3062.862305 2469.45459 3068.853271 2469.192139 3082.91748 2481.369629 C 3106.378418 2501.683594 3129.765869 2522.082031 3153.183838 2542.444336 C 3153.569092 2542.001221 3153.954346 2541.557617 3154.339355 2541.114502 Z"/>
        <path id="path10" fill="#000000" stroke="none" d="M 574.165771 2542.952637 C 567.996826 2524.931641 562.446594 2507.629395 556.164063 2490.596924 C 543.873901 2457.2771 531.195251 2424.100342 518.635498 2390.880371 C 512.91626 2375.75293 505.883148 2360.970703 501.94339 2345.399902 C 500.447205 2339.486328 504.110718 2327.614014 508.597748 2325.625244 C 530.788574 2315.790527 553.623352 2306.778809 577.047974 2300.551758 C 597.329773 2295.160156 612.421326 2305.021973 615.86499 2325.736328 C 621.359802 2358.790283 632.216187 2389.534668 645.469482 2420.189453 C 654.60498 2441.319336 656.545471 2465.439941 663.881714 2487.499023 C 673.341187 2515.941895 685.108276 2543.611816 695.631104 2571.708496 C 702.467285 2589.961182 704.80072 2595.688477 710.56427 2614.289551 C 714.32959 2626.441406 706.319275 2639.88208 694.26416 2643.268066 C 671.360657 2649.700684 647.912292 2654.415527 625.392944 2661.946045 C 580.702515 2676.890137 536.544678 2693.419922 492.055695 2708.977539 C 469.022308 2717.031982 445.526947 2723.796875 422.636353 2732.221191 C 378.887939 2748.321289 335.43045 2765.21167 291.837769 2781.73584 C 262.530487 2792.844971 233.293091 2804.151855 203.807037 2814.766113 C 196.942459 2817.237305 189.045074 2818.643311 181.908859 2817.876465 C 177.635544 2817.417236 171.489395 2812.472168 170.344162 2808.379395 C 163.100433 2782.489258 156.984299 2772.639648 148.859222 2744.697754 C 145.340286 2732.596191 139.953522 2720.0354 136.87941 2707.256348 C 134.008942 2695.324707 137.846878 2687.198242 151.303391 2683.668213 C 183.813217 2675.140137 216.27092 2666.250488 248.286255 2656.051514 C 273.508209 2648.016602 297.852997 2637.266602 322.919891 2628.696045 C 361.411804 2615.535156 400.383453 2603.766602 438.790527 2590.371826 C 476.66449 2577.163086 514.056519 2562.576416 551.743896 2548.824219 C 558.114807 2546.499512 564.909668 2545.336426 574.165771 2542.952637 Z"/>
        <g id="Group">
            <path id="path11" fill="#000000" stroke="none" d="M 2875.506592 906.869873 C 2907.375732 897.98999 2939.333008 889.411377 2971.093994 880.158936 C 3018.217529 866.431641 3065.451172 853.001709 3112.168701 837.98584 C 3150.95459 825.519531 3188.862793 810.343262 3227.527832 797.472168 C 3269.091064 783.63623 3311.422363 772.058594 3352.753662 757.594482 C 3375.34082 749.689941 3390.538818 757.022949 3400.900391 775.588135 L 3436.248535 819.433105 C 3455.411621 842.706787 3453.641602 854.820801 3434.914795 877.574707 C 3417.314941 898.960205 3402.428955 922.581543 3386.380615 945.241699 L 3307.996094 1049.390137 C 3289.498047 1073.600586 3271.197021 1097.999512 3253.801758 1123.005615 C 3233.09375 1152.774414 3213.904785 1183.600342 3193.210449 1213.378906 C 3173.505127 1241.734131 3153.246094 1269.743408 3132.214111 1297.123779 C 3116.733887 1317.276367 3103.904785 1314.822754 3085.518066 1297.357178 C 3064.27832 1277.181396 3068.174561 1272.431152 3052.068115 1249.402588 C 3043.583496 1237.27124 3033.996094 1225.570801 3027.832275 1212.314941 C 3025.18042 1206.611572 3028.499756 1196.749756 3031.745605 1190.05835 C 3035.261963 1182.809326 3041.868896 1177.065186 3047.102295 1170.644287 C 3063.835449 1150.115723 3063.97998 1150.005859 3049.331299 1129.401855 C 3027.579346 1098.807129 3005.878662 1068.167725 2983.601563 1037.956299 C 2968.789551 1017.868896 2961.582275 1015.836182 2942.72876 1028.265869 C 2932.348633 1035.109131 2918.517334 1037.171387 2905.936279 1040.054932 C 2898.064453 1041.858887 2892.673096 1039.007568 2888.052246 1030.062744 C 2879.177734 1012.884277 2867.606689 997.004883 2856.291016 981.205322 C 2841.6875 960.81543 2839.857178 963.191895 2825.290039 942.777588 C 2820.009033 935.376953 2821.427734 927.686035 2830.702393 923.556396 L 2875.506592 906.869873 Z M 3250.126465 922.448975 C 3248.786377 920.958008 3247.446289 919.467041 3246.106201 917.976074 C 3232.303955 921.765381 3218.235107 924.791016 3204.751465 929.494385 C 3170.862793 941.316162 3137.326416 954.146484 3103.465332 966.050781 C 3089.474121 970.969482 3086.551758 977.936768 3094.852783 989.642578 C 3097.504395 993.38208 3099.068848 997.923096 3101.872803 1001.518799 C 3114.068848 1017.161621 3126.323486 1032.774658 3139.201172 1047.848389 C 3140.686279 1049.58667 3147.149414 1049.25293 3149.635742 1047.505127 C 3154.993408 1043.73877 3159.756348 1038.823242 3163.898438 1033.681396 C 3185.497559 1006.870361 3206.949219 979.9375 3228.182129 952.835693 C 3235.881836 943.008301 3242.833496 932.594727 3250.126465 922.448975 Z"/>
            <path id="path12" fill="#000000" stroke="none" d="M 3590.110107 723.480225 C 3590.075928 710.841309 3586.136719 699.177002 3578.928467 688.976074 C 3575.503418 684.128906 3571.700439 679.333496 3565.855957 676.312744 C 3559.287598 672.915039 3554.641602 666.280273 3546.870361 664.521484 C 3541.477539 663.300537 3536.237305 661.36084 3530.823242 660.296387 C 3524.427246 659.039795 3517.966064 658.643066 3511.394775 659.796387 C 3505.439941 660.839355 3499.243408 660.640869 3493.362793 661.939941 C 3488.596924 662.990479 3483.898682 665.010498 3479.616943 667.407227 C 3474.726074 670.142334 3469.412842 672.549561 3466.27832 677.726563 C 3462.94165 683.234619 3459.444824 688.646484 3455.978516 694.160889 C 3449.016113 702.532959 3448.068848 713.16748 3446.227539 723.252197 C 3444.946533 730.275879 3445.570557 737.712402 3445.85083 744.943604 C 3446.272217 755.862793 3451.421631 765.262451 3457.503418 773.751709 C 3461.481201 779.301758 3467.07251 784.148438 3472.883789 787.818359 C 3480.176514 792.419922 3488.122314 796.529785 3496.338623 799.003662 C 3510.708496 803.331543 3525.488037 803.637695 3540.168701 799.443604 C 3552.856689 795.818848 3563.587646 789.297363 3570.943848 778.212158 C 3574.934082 772.198486 3578.570557 765.811279 3581.354004 759.168213 C 3584.392578 751.904053 3586.532227 744.223389 3588.536377 736.584473 C 3589.64624 732.363281 3590.123291 727.856689 3590.110107 723.480225 Z"/>
        </g>
        <g id="g1">
            <path id="path13" fill="#000000" stroke="none" d="M 161.086853 2144.115234 C 157.618301 2151.468994 156.68808 2159.334473 158.061279 2167.251465 C 158.713562 2171.013672 159.599884 2174.849609 162.162491 2178.218262 C 165.041504 2182.005371 165.909988 2187.143066 169.940308 2190.310059 C 172.737183 2192.507813 175.24678 2195.081055 178.09906 2197.194092 C 181.468781 2199.689453 185.113907 2201.703613 189.250626 2202.846924 C 192.998825 2203.884277 196.544846 2205.709961 200.320587 2206.578125 C 203.379883 2207.283203 206.667526 2207.406006 209.817062 2207.195313 C 213.41391 2206.955566 217.165955 2207.023193 220.416138 2204.880127 C 223.875275 2202.600098 227.400848 2200.42041 230.937164 2198.173096 C 237.293625 2195.229736 240.779373 2189.311523 244.632568 2183.959473 C 247.315567 2180.231934 249.005417 2175.738281 250.838287 2171.458984 C 253.607086 2164.997803 253.209244 2158.114258 252.018097 2151.50293 C 251.23851 2147.179688 249.327179 2142.820068 246.96315 2139.08374 C 243.995605 2134.396973 240.512726 2129.815918 236.421021 2126.110352 C 229.265305 2119.629395 220.761688 2115.372559 211.073181 2113.757813 C 202.699921 2112.362305 194.664291 2113.189941 187.330093 2117.601074 C 183.351807 2119.994141 179.475723 2122.702148 176.024887 2125.793945 C 172.254333 2129.176758 168.891022 2133.049316 165.618164 2136.935059 C 163.808151 2139.081543 162.28717 2141.568604 161.086853 2144.115234 Z"/>
            <path id="path14" fill="#000000" stroke="none" d="M 403.148956 2098.364258 C 399.68045 2105.718262 398.750244 2113.583496 400.123413 2121.500488 C 400.775726 2125.262695 401.661987 2129.098633 404.22464 2132.467041 C 407.103668 2136.254395 407.972137 2141.391846 412.002441 2144.558838 C 414.799316 2146.756836 417.308929 2149.330322 420.161194 2151.443115 C 423.530884 2153.938721 427.176025 2155.952637 431.312744 2157.095947 C 435.060944 2158.133301 438.606964 2159.958984 442.382751 2160.827148 C 445.442017 2161.532227 448.729645 2161.655029 451.879181 2161.443848 C 455.476074 2161.20459 459.228058 2161.272461 462.478271 2159.129395 C 465.937439 2156.849365 469.462952 2154.669434 472.999329 2152.421875 C 479.355743 2149.47876 482.841492 2143.560547 486.694702 2138.208496 C 489.377716 2134.480957 491.067566 2129.987305 492.900391 2125.708008 C 495.66925 2119.246582 495.271362 2112.363281 494.080231 2105.751709 C 493.300629 2101.428711 491.389343 2097.069336 489.025299 2093.332764 C 486.057739 2088.645996 482.574829 2084.064941 478.483124 2080.359375 C 471.327454 2073.878418 462.823792 2069.621582 453.135315 2068.006836 C 444.762024 2066.611328 436.72644 2067.438965 429.392242 2071.850098 C 425.413971 2074.243164 421.537842 2076.950928 418.087006 2080.043213 C 414.316498 2083.425537 410.953125 2087.29834 407.680328 2091.183838 C 405.8703 2093.330566 404.349335 2095.817871 403.148956 2098.364258 Z"/>
        </g>
    </g>
</svg>
