<svg width="32" height="32" viewBox="0 0 32 32" fill="none" xmlns="http://www.w3.org/2000/svg">
  <style>
    .stroke { stroke: #3D6B4F; }
    .fill-subtle { fill: #3D6B4F; }
    .seed { stroke: #8B7355; }
    .sun-fill { fill: #C4956A; }
    .sun-stroke { stroke: #C4956A; }
    @media (prefers-color-scheme: dark) {
      .stroke { stroke: #8CBE8C; }
      .fill-subtle { fill: #8CBE8C; }
      .seed { stroke: #C4956A; }
    }
  </style>
  <!-- Jordcirkel -->
  <circle cx="16" cy="20" r="13" class="fill-subtle" opacity="0.12"/>
  <!-- Frö -->
  <ellipse cx="16" cy="24" rx="3" ry="2.2" class="seed" stroke-width="1.4" fill="none" opacity="0.6"/>
  <!-- Huvudstjälk -->
  <path d="M16 22 C16 18, 16 14, 15 10" class="stroke" stroke-width="2" stroke-linecap="round"/>
  <!-- Vänster blad -->
  <path d="M15.5 15 C13 12, 8 10, 6 11 C8 9, 12 8, 15 12" class="stroke" stroke-width="1.6" stroke-linecap="round"/>
  <path d="M6 11 C8 9, 12 8, 15 12 C12 8, 8 9, 6 11" class="fill-subtle" opacity="0.15"/>
  <!-- Höger blad -->
  <path d="M15.5 15 C18 12, 23 11, 25 12 C23 10, 19 9, 16 12" class="stroke" stroke-width="1.6" stroke-linecap="round"/>
  <path d="M25 12 C23 10, 19 9, 16 12 C19 9, 23 10, 25 12" class="fill-subtle" opacity="0.15"/>
  <!-- Toppblad -->
  <path d="M15 10 C14 7, 15 4, 16 3 C17 4, 18 7, 17 10" class="stroke" stroke-width="1.6" stroke-linecap="round"/>
  <path d="M15 10 C14 7, 15 4, 16 3 C17 4, 18 7, 17 10" class="fill-subtle" opacity="0.1"/>
  <!-- Solstråle -->
  <circle cx="25" cy="5" r="1.5" class="sun-fill" opacity="0.5"/>
  <circle cx="25" cy="5" r="1.5" class="sun-stroke" stroke-width="0.8" fill="none" opacity="0.6"/>
</svg>
