<svg width="32" height="32" viewBox="0 0 32 32" fill="none" xmlns="http://www.w3.org/2000/svg">
  <rect width="32" height="32" rx="6" fill="#3D6B4F"/>
  <path d="M16 12 L16 4" stroke="#fff" stroke-width="2" stroke-linecap="round"/>
  <path d="M16 4 C14 2, 12 1, 10 1" stroke="#fff" stroke-width="1.5" stroke-linecap="round" opacity="0.7"/>
  <path d="M16 4 C18 2, 20 1, 22 1" stroke="#fff" stroke-width="1.5" stroke-linecap="round" opacity="0.7"/>
  <path d="M9 16 C9 12, 11 10, 16 10 C21 10, 23 12, 23 16 C23 22, 21 27, 16 28 C11 27, 9 22, 9 16Z" fill="#fff" opacity="0.15"/>
  <path d="M16 10 C12 10, 10 12, 9 16 C8 20, 10 25, 14 27 C15 28, 16 28, 16 28" stroke="#fff" stroke-width="1.8" stroke-linecap="round" fill="none"/>
  <path d="M16 10 C20 10, 22 12, 23 16 C24 20, 22 25, 18 27 C17 28, 16 28, 16 28" stroke="#fff" stroke-width="1.8" stroke-linecap="round" fill="none"/>
</svg>
